<?xml version="1.0" encoding="utf-8"?>
<!-- Generator: Adobe Illustrator 22.0.0, SVG Export Plug-In . SVG Version: 6.00 Build 0)  -->
<svg version="1.1" id="Layer_1" xmlns="http://www.w3.org/2000/svg" xmlns:xlink="http://www.w3.org/1999/xlink" x="0px" y="0px"
	 viewBox="0 0 40 40" style="enable-background:new 0 0 40 40;" xml:space="preserve">
<style type="text/css">
	.st0{fill:#BE944A;stroke:#FFFFFF;stroke-miterlimit:10;}
</style>
<path class="st0" d="M3.6,22.9L1.8,21c-0.8-0.8-0.8-2.1,0-3L18.5,1.3c0.8-0.8,2.1-0.8,3,0L38.2,18c0.8,0.8,0.8,2.1,0,3l-1.9,1.9
	c-0.8,0.8-2.2,0.8-3,0l-9.9-10.3v24.7c0,1.2-0.9,2.1-2.1,2.1h-2.8c-1.2,0-2.1-0.9-2.1-2.1V12.4L6.8,22.8C5.8,23.6,4.5,23.6,3.6,22.9
	z"/>
</svg>
