<?xml version="1.0" encoding="utf-8"?>
<!-- Generator: Adobe Illustrator 22.0.0, SVG Export Plug-In . SVG Version: 6.00 Build 0)  -->
<svg version="1.1" id="Layer_1" xmlns="http://www.w3.org/2000/svg" xmlns:xlink="http://www.w3.org/1999/xlink" x="0px" y="0px"
	 viewBox="0 0 28.3 28.3" style="enable-background:new 0 0 28.3 28.3;" xml:space="preserve">
<style type="text/css">
	.st0{fill:#23282D;stroke:#23282D;stroke-miterlimit:10;}
</style>
<g>
	<path class="st0" d="M5.5,21.1H4.9c-0.6,0-1.1-0.5-1.1-1.1V2.8c0-0.6,0.5-1.1,1.1-1.1h12.4c0.6,0,1.1,0.5,1.1,1.1h0.8
		c0-1-0.9-1.8-1.8-1.8H4.9C3.8,1,3,1.9,3,2.8v17.1c0,1.1,0.9,1.8,1.8,1.8h0.8L5.5,21.1L5.5,21.1z"/>
	<path class="st0" d="M23.3,5.6H21l0,0h-0.8l0,0h-10c-1.1,0-1.9,0.9-1.9,1.9v15.2V23v0.8v0.3v1.3c0,1.1,0.9,1.9,1.9,1.9h13
		c1.1,0,1.9-0.9,1.9-1.9V7.5C25.3,6.4,24.4,5.6,23.3,5.6z M24.5,25.3c0,0.6-0.6,1.1-1.1,1.1h-13c-0.7,0-1.1-0.5-1.1-1.1V7.5
		c0-0.6,0.6-1.1,1.1-1.1h13c0.7,0,1.1,0.5,1.1,1.1V25.3z"/>
</g>
</svg>
