<?xml version="1.0" encoding="utf-8"?>
<!-- Generator: Adobe Illustrator 22.0.0, SVG Export Plug-In . SVG Version: 6.00 Build 0)  -->
<svg version="1.1" id="Layer_1" xmlns="http://www.w3.org/2000/svg" xmlns:xlink="http://www.w3.org/1999/xlink" x="0px" y="0px"
	 viewBox="0 0 30 30" style="enable-background:new 0 0 30 30;" xml:space="preserve">
<style type="text/css">
	.st0{fill:#BE944A;}
</style>
<path class="st0" d="M15,25.7c-1.5,0-2.9-0.3-4.2-0.8s-2.5-1.3-3.4-2.2c-1-1-1.7-2.1-2.2-3.4S4.3,16.5,4.3,15s0.3-2.9,0.8-4.2
	s1.3-2.4,2.3-3.4s2.1-1.7,3.4-2.3s2.7-0.8,4.2-0.8c1.3,0,2.6,0.2,3.7,0.6c1.2,0.4,2.2,1,3.2,1.8l-1.2,1.1c-0.8-0.6-1.7-1.1-2.6-1.4
	c-1-0.3-2-0.5-3.1-0.5c-2.6,0-4.8,0.9-6.5,2.6S5.9,12.4,5.9,15s0.9,4.8,2.6,6.5c1.8,1.7,3.9,2.6,6.5,2.6s4.8-0.9,6.5-2.6
	c1.7-1.8,2.6-3.9,2.6-6.5c0-0.5-0.1-1.1-0.1-1.6c-0.1-0.5-0.2-1-0.4-1.5l1.2-1.2c0.3,0.6,0.5,1.3,0.6,2c0.2,0.7,0.2,1.4,0.2,2.2
	c0,1.5-0.3,2.9-0.8,4.2s-1.3,2.5-2.2,3.4c-0.9,1-2.1,1.7-3.4,2.2C17.9,25.4,16.5,25.7,15,25.7z M13.5,19.9L9,15.4l1.2-1.2l3.2,3.2
	L24.5,6.3l1.2,1.2L13.5,19.9z"/>
</svg>
