<?xml version="1.0" encoding="utf-8"?>
<!-- Generator: Adobe Illustrator 22.0.0, SVG Export Plug-In . SVG Version: 6.00 Build 0)  -->
<svg version="1.1" id="Layer_1" xmlns="http://www.w3.org/2000/svg" xmlns:xlink="http://www.w3.org/1999/xlink" x="0px" y="0px"
	 viewBox="0 0 100 100" style="enable-background:new 0 0 100 100;" xml:space="preserve">
<style type="text/css">
	.st0{clip-path:url(#SVGID_2_);fill:#23282D;}
	.st1{clip-path:url(#SVGID_2_);fill:#FFFFFF;}
	.st2{clip-path:url(#SVGID_2_);}
	.st3{fill:#FFFFFF;}
	.st4{fill:#D1D3D4;}
	.st5{fill:#23282D;}
	.st6{fill:none;stroke:#FFFFFF;stroke-miterlimit:10;}
	.st7{clip-path:url(#SVGID_2_);fill:#BF954B;}
	.st8{fill:#BF954B;}
</style>
<g>
	<g>
		<defs>
			<circle id="SVGID_1_" cx="55.6" cy="50.6" r="36.2"/>
		</defs>
		<clipPath id="SVGID_2_">
			<use xlink:href="#SVGID_1_"  style="overflow:visible;"/>
		</clipPath>
		<circle class="st0" cx="55.6" cy="50.6" r="36.2"/>
		<path class="st1" d="M91.1,65c0,0-24.5-6.6-45-3.8c0,0-21.9,2.4-24.9,5.1c-3,2.6,0.9,16.2,16.8,20.7c15.9,4.5,29.9,4.4,38.8-1
			C85.8,80.5,91.1,65,91.1,65z"/>
		<g class="st2">
			<path class="st3" d="M87,64.8l-0.7-29l-18-5.6L50.8,36l-0.8,24.8C49.9,60.8,65.6,60.8,87,64.8z"/>
			<path class="st4" d="M68.3,30.1L50.8,36l-0.8,24.8c0,0,7.1,0,18.1,1.2L68.3,30.1z"/>
			<path class="st5" d="M57.7,61.2L45,61l-2.4-17.9c1,1.5,4.2,1.9,9.5,6.1c5,3.9,6.2,12,6.2,12L57.7,61.2z"/>
			<polygon class="st5" points="87,46.9 68.4,42.1 49.2,46.9 49.2,42.6 68.1,37.5 87,42.6 			"/>
			<path class="st3" d="M22.5,65.6c0,0,0.6-9.9,6.4-14.8c5.1-4.3,8.8-4.9,9.8-6.4c1.2-1.9,1.1-2.2,1.9-2.4H41
				c0.8,0.2,0.6,0.5,1.9,2.4c1,1.5,4.7,2.1,9.8,6.4c5.8,4.9,6.4,14.8,6.4,14.8H22.5z"/>
			<line class="st6" x1="40.8" y1="35.2" x2="40.8" y2="42.6"/>
			<circle class="st3" cx="40.8" cy="40" r="1.3"/>
			<circle class="st3" cx="40.8" cy="37.3" r="1"/>
			<path class="st3" d="M42.9,30.5c0.3,0.4,0.5,1,0.5,1.6c0,1.5-1.2,2.6-2.6,2.6s-2.6-1.2-2.6-2.6c0-0.6,0.2-1.1,0.5-1.6
				c-0.6,0.5-0.9,1.3-0.9,2.2c0,1.7,1.3,3,3,3c1.7,0,3-1.3,3-3C43.8,31.8,43.4,31,42.9,30.5z"/>
		</g>
		<path class="st0" d="M89.9,66.3c0,0-13.1-5.1-41.7-4.8c0,0,19.9-2.5,42.2,3.2L89.9,66.3z"/>
		<path class="st7" d="M89.2,68.1c0,0-37.6-5.8-66.8,0v0.5c0,0,37.3-3.1,57.7,4.6c0,0-34.5-5.1-57.7-1.5c0,0,8.4,17.6,34.5,17.7
			C83.2,89.6,89.3,68.9,89.2,68.1z"/>
	</g>
	<path class="st8" d="M21.5,21.7c-7.4,7.5-10.8,17.6-10.8,28.9c0,23.1,24.1,41,42.6,41c3.5,0,5.4,0.1,8.9-0.9
		c-2,0.2-2.6,0.2-4.5,0.2c-23.4,0-42.2-18.1-42.2-40.8c0-9.5,3.3-18.2,8.9-25.2c0,0,2.4-2.9,5.4-5.5c2.7-2.4,5.8-5.8,6.3-6.4
		c0.5-0.6,2.7-3.5,3.3-4.6c0.6-1,0.6-1.6,0.4-2c-0.2-0.6-1.6-0.4-2.1,0c-0.4,0.3-0.9,0.5-1.3,0.5s-1.3,0.1-2.1,0.9
		c-0.8,0.8-7.2,7.7-7.2,7.7L8.5,19.2l-1.3,4.7L8.6,22L21.5,21.7z"/>
	<polygon class="st8" points="32.2,18.6 28.4,24 32.6,28.7 31.5,30.9 34.7,27.9 	"/>
</g>
</svg>
