<?xml version="1.0" encoding="utf-8"?>
<!-- Generator: Adobe Illustrator 22.0.0, SVG Export Plug-In . SVG Version: 6.00 Build 0)  -->
<svg version="1.1" id="Layer_1" xmlns="http://www.w3.org/2000/svg" xmlns:xlink="http://www.w3.org/1999/xlink" x="0px" y="0px"
	 viewBox="0 0 132.5 200" style="enable-background:new 0 0 132.5 200;" xml:space="preserve">
<style type="text/css">
	.st0{fill:#BF954B;}
</style>
<g>
	<path class="st0" d="M36.6,39C20,55.9,12.3,78.5,12.3,103.9c0,51.7,54.1,92,95.6,92c7.8,0,12.1,0.1,20-1.9c-4.5,0.3-5.9,0.4-10,0.4
		c-52.5,0-94.7-40.6-94.7-91.5c0-21.3,7.4-40.9,19.9-56.5c0,0,5.5-6.4,12.2-12.3c6.2-5.4,13.1-13.1,14.2-14.4s6-7.8,7.4-10.2
		c1.3-2.3,1.3-3.7,0.9-4.5c-0.5-1.3-3.6-0.8-4.6,0c-0.9,0.7-2,1.2-3,1.2S67.2,6.2,65.3,8c-1.9,1.8-16.2,17.3-16.2,17.3L7.6,33.2
		l-3,10.5l3.1-4.1L36.6,39z"/>
	<polygon class="st0" points="60.8,31.9 52.3,44.1 61.5,54.6 59.2,59.7 66.2,52.8 	"/>
</g>
</svg>
