<?xml version="1.0" encoding="utf-8"?>
<!-- Generator: Adobe Illustrator 22.0.0, SVG Export Plug-In . SVG Version: 6.00 Build 0)  -->
<svg version="1.1" id="Capa_1" xmlns="http://www.w3.org/2000/svg" xmlns:xlink="http://www.w3.org/1999/xlink" x="0px" y="0px"
	 viewBox="0 0 26.6 23.6" style="enable-background:new 0 0 26.6 23.6;" xml:space="preserve">
<style type="text/css">
	.st0{fill:#FFFFFF;}
</style>
<g id="XMLID_51_">
	<path id="XMLID_53_" class="st0" d="M8.9,22.8c0,0.2,0.1,0.3,0.2,0.4c0.1,0.1,0.3,0.1,0.4,0l2.9-2l-3.6-1.7L8.9,22.8L8.9,22.8z"/>
	<path id="XMLID_52_" class="st0" d="M26.2,0.4c-0.1-0.1-0.2-0.1-0.3-0.1c-0.1,0-0.1,0-0.2,0L0.6,12.7c-0.3,0.1-0.4,0.4-0.4,0.7
		s0.2,0.5,0.4,0.7l6.6,3.2l13.3-11L8.9,18l8.3,3.9c0.1,0,0.2,0.1,0.3,0.1c0.1,0,0.2,0,0.3-0.1c0.2-0.1,0.3-0.2,0.4-0.4l8.2-20.6
		C26.4,0.7,26.3,0.5,26.2,0.4z"/>
</g>
</svg>
