<?xml version="1.0" encoding="utf-8"?>
<!-- Generator: Adobe Illustrator 22.0.0, SVG Export Plug-In . SVG Version: 6.00 Build 0)  -->
<svg version="1.1" id="Layer_1" xmlns="http://www.w3.org/2000/svg" xmlns:xlink="http://www.w3.org/1999/xlink" x="0px" y="0px"
	 viewBox="0 0 23 17" style="enable-background:new 0 0 23 17;" xml:space="preserve">
<style type="text/css">
	.st0{fill:#BE944A;}
</style>
<path class="st0" d="M14.9,0.6c-1.3,0-2.4,1.1-2.4,2.4c0,0.2,0,0.5,0.1,0.7l-4.3,3C7.9,6.4,7.3,6.2,6.8,6.2c-1.4,0-2.5,1.1-2.5,2.5
	c0,1.3,1.1,2.4,2.4,2.4c0.5,0,1-0.2,1.4-0.5l4.3,3c-0.1,0.2-0.1,0.4-0.1,0.6c0,1.3,1.1,2.4,2.4,2.4s2.4-1.1,2.4-2.4
	s-1.1-2.4-2.4-2.4c-0.5,0-1,0.2-1.4,0.5l-4.3-3c0.1-0.2,0.1-0.4,0.1-0.6c0-0.2,0-0.4-0.1-0.6l4.3-3c0.4,0.3,0.9,0.4,1.4,0.4
	c1.3,0,2.4-1.1,2.4-2.4C17.4,1.7,16.2,0.6,14.9,0.6z"/>
</svg>
