<?xml version="1.0" encoding="utf-8"?>
<!-- Generator: Adobe Illustrator 22.0.0, SVG Export Plug-In . SVG Version: 6.00 Build 0)  -->
<svg version="1.1" id="Layer_1" xmlns="http://www.w3.org/2000/svg" xmlns:xlink="http://www.w3.org/1999/xlink" x="0px" y="0px"
	 viewBox="0 0 40 40" style="enable-background:new 0 0 40 40;" xml:space="preserve">
<style type="text/css">
	.st0{fill:#BE944A;}
	.st1{fill:#FFFFFF;}
</style>
<path class="st0" d="M34.5,7.1c-3.4-3.8-8.1-6-13.1-6.2C10.9,0.4,2.1,8.5,1.6,18.9c-0.2,3.3,0.9,7.5,2.7,10.9l-3.8,8.4l9.5-2.6
	c2.7,1.6,6.4,3,9.5,3.2l0,0c10.4,0.5,19.5-7.6,19.9-18C39.8,15.7,37.8,10.8,34.5,7.1z"/>
<path class="st1" d="M30.8,24.1c-0.5-0.3-3.1-1.6-3.6-1.7c-0.5-0.2-0.8-0.3-1.2,0.3c-0.4,0.5-1.4,1.7-1.7,2.1
	c-0.3,0.4-0.6,0.4-1.2,0.1c-3.1-1.6-5.2-2.8-7.2-6.3c-0.5-0.9,0.5-0.9,1.6-2.9c0.2-0.4,0.1-0.7,0-0.9s-1.2-2.9-1.6-4
	c-0.4-1-0.9-0.9-1.2-0.9s-0.7,0-1,0c-0.4,0-0.9,0.1-1.4,0.7c-0.5,0.5-1.9,1.8-1.9,4.4s1.9,5.1,2.2,5.5s3.7,5.7,9.1,8
	c3.4,1.5,4.7,1.6,6.4,1.3c1-0.2,3.1-1.3,3.6-2.5c0.5-1.2,0.4-2.3,0.3-2.5C31.7,24.5,31.3,24.3,30.8,24.1z"/>
</svg>
