<?xml version="1.0" encoding="utf-8"?>
<!-- Generator: Adobe Illustrator 22.0.0, SVG Export Plug-In . SVG Version: 6.00 Build 0)  -->
<svg version="1.1" id="OBJECTS" xmlns="http://www.w3.org/2000/svg" xmlns:xlink="http://www.w3.org/1999/xlink" x="0px" y="0px"
	 viewBox="0 0 515 440" style="enable-background:new 0 0 515 440;" xml:space="preserve">
<style type="text/css">
	.st0{fill:#D6D6D6;}
	.st1{fill:#636566;}
	.st2{fill:#22282C;}
	.st3{fill:#FFFFFF;}
	.st4{fill:#BE944A;}
	.st5{opacity:0.3;fill:#FFFFFF;}
	.st6{opacity:0.2;fill:#22282C;enable-background:new    ;}
	.st7{opacity:0.1;fill:#22282C;enable-background:new    ;}
	.st8{fill:#FFC0AD;}
	.st9{fill:#FDA084;}
	.st10{fill:#8E6A2F;}
	.st11{fill:#FF7972;}
	.st12{fill:#0F1416;}
	.st13{opacity:0.5;fill:#FFFFFF;enable-background:new    ;}
	.st14{fill:#4F5456;}
	.st15{fill:#EBF0F3;}
</style>
<g>
	<g>
		<g>
			<path class="st0" d="M257.6,126.7c-15.4-55.8-84.7-73.8-124.5-32.1c-0.6,0.6-1.1,1.2-1.7,1.8c-57,61.9-30.1,214.5,88.8,253.2
				s242.6-32,249.5-95.1s-47.9-83-133-65.3C288.7,199.3,267.2,161.5,257.6,126.7z"/>
			<path class="st0" d="M377.6,139.6c-15.9,2.6-20.3,16.7-8,26.7c4.1,3.3,9.9,6.1,18.1,7.4c31.5,5.2,48.2-8.7,35.5-26.7
				C415.4,135.8,393.3,137,377.6,139.6z"/>
			<path class="st0" d="M88.4,233.8c-9.9-12.7-24.4-9.8-27.3,5.7c-1,5.1-0.6,11.6,2.2,19.5c10.5,30.1,30.7,38.1,40.5,18.4
				C109.9,265.2,98.2,246.4,88.4,233.8z"/>
			<path class="st0" d="M305.2,111.4l1.7-8.4l-7.9-1.5c0-2.1-0.4-4.2-1-6.2l6.5-4.4l-4.8-7.1l-6.2,4.2c-1.9-1.9-4-3.3-6.4-4.3
				l1.6-7.9l-8.4-1.7l-1.6,8.1c-1.7,0.1-3.4,0.4-5.1,1l-4.4-6.5l-7.1,4.8l4.2,6.2c-1.9,1.9-3.3,4-4.3,6.4l-6.9-1.4l-1.7,8.4l7.1,1.4
				c0.1,2.2,0.6,4.4,1.5,6.5l-6.2,4.2l4.8,7.1l6.5-4.4c1.9,1.6,4,2.8,6.3,3.6l-1.6,7.9l8.4,1.7l1.7-8.6c1.9-0.2,3.7-0.7,5.5-1.4
				l4.2,6.2l7.1-4.8l-4.4-6.5c1.2-1.3,2.1-2.8,2.9-4.4L305.2,111.4z M284,108.1c-3.6,2.4-8.5,1.5-10.9-2.1s-1.5-8.5,2.1-10.9
				s8.5-1.5,10.9,2.1S287.6,105.7,284,108.1z"/>
			<path class="st0" d="M257.5,72.7l0.9-4.6l-4.3-0.8c0-1.1-0.2-2.3-0.6-3.4l3.6-2.4l-2.6-3.9l-3.4,2.3c-1-1-2.2-1.8-3.5-2.3
				l0.8-4.3l-4.6-0.9l-0.9,4.4c-0.9,0.1-1.9,0.2-2.8,0.5l-2.4-3.6l-3.9,2.6l2.3,3.4c-1,1-1.8,2.2-2.3,3.5l-3.8-0.7l-0.9,4.6l3.9,0.8
				c0.1,1.2,0.3,2.4,0.8,3.6l-3.4,2.3l2.6,3.9l3.6-2.4c1,0.9,2.2,1.6,3.4,2l-0.9,4.3l4.6,0.9l0.9-4.7c1-0.1,2-0.4,3-0.8l2.3,3.4
				l3.9-2.6l-2.4-3.6c0.6-0.7,1.2-1.5,1.6-2.4L257.5,72.7z M246,70.9c-2,1.3-4.6,0.8-6-1.2c-1.3-2-0.8-4.6,1.2-6
				c2-1.3,4.6-0.8,6,1.2C248.5,66.9,247.9,69.5,246,70.9z"/>
			<path class="st0" d="M489.1,96.2l0.9-4.6l-4.3-0.8c0-1.1-0.2-2.3-0.6-3.4l3.6-2.4l-2.6-3.9l-3.4,2.3c-1-1-2.2-1.8-3.5-2.3
				l0.8-4.3l-4.6-0.9l-0.9,4.4c-0.9,0.1-1.9,0.2-2.8,0.5l-2.4-3.6l-3.9,2.6l2.3,3.4c-1,1-1.8,2.2-2.3,3.5l-3.8-0.7l-0.9,4.6l3.9,0.8
				c0.1,1.2,0.3,2.4,0.8,3.6l-3.4,2.3l2.6,3.9l3.6-2.4c1,0.9,2.2,1.6,3.4,2l-0.9,4.3l4.6,0.9l0.9-4.7c1-0.1,2-0.4,3-0.8l2.3,3.4
				l3.9-2.6l-2.4-3.6c0.6-0.7,1.2-1.5,1.6-2.4L489.1,96.2z M477.5,94.4c-2,1.3-4.6,0.8-6-1.2c-1.3-2-0.8-4.6,1.2-6
				c2-1.3,4.6-0.8,6,1.2C480,90.4,479.5,93.1,477.5,94.4z"/>
			<path class="st0" d="M95.4,153.5l0.9-4.6L92,148c0-1.1-0.2-2.3-0.6-3.4l3.6-2.4l-2.6-3.9l-3.4,2.3c-1-1-2.2-1.8-3.5-2.3l0.8-4.3
				l-4.6-0.9l-0.9,4.4c-0.9,0.1-1.9,0.2-2.8,0.5l-2.4-3.6l-3.9,2.6l2.3,3.4c-1,1-1.8,2.2-2.3,3.5l-3.8-0.7l-0.9,4.6l3.9,0.8
				c0.1,1.2,0.3,2.4,0.8,3.6l-3.4,2.3l2.6,3.9l3.6-2.4c1,0.9,2.2,1.6,3.4,2l-0.9,4.3l4.6,0.9l0.9-4.7c1-0.1,2-0.4,3-0.8l2.3,3.4
				l3.9-2.6l-2.4-3.6c0.6-0.7,1.2-1.5,1.6-2.4L95.4,153.5z M83.9,151.6c-2,1.3-4.6,0.8-6-1.2c-1.3-2-0.8-4.6,1.2-6
				c2-1.3,4.6-0.8,6,1.2C86.4,147.6,85.8,150.3,83.9,151.6z"/>
		</g>
	</g>
	<path class="st0" d="M275.7,382.5c-76.3,0-143-3.3-179.2-8.3c-3.8-0.5-5,5-1.3,6c24.7,7,59.7,7.5,82,9.9c38.5,4.1,94.5,3,98.4,16.4
		s4.3,27.6-34.9,25.6c-42.6-2.2-35.5-25.6-35.5-25.6c-39.5,1.1-133.5-8.1-143.9-24.1c-10.3-15.8,8.6-19.5,9-19.5l0,0
		c15.9-8,101.8-14.2,205.3-14.2c114.9,0,208,7.5,208,16.9C483.7,374.9,390.5,382.5,275.7,382.5z"/>
	<g>
		<g>
			<path class="st1" d="M133.2,333.6c-9.2-9.2-29.2-30.9-41.8-55.4c-18.1-35.3-36.2-32.1-39.8-19.6c-9.2,32.2,45,67.3,67.5,80.2
				L133.2,333.6z"/>
			<g>
				<path class="st2" d="M128.2,335.4C112.4,323.6,99.1,309.6,90,299c-12.1-14.1-19.4-25.3-19.5-25.4c-0.3-0.4-0.8-0.5-1.2-0.3
					c-0.4,0.3-0.5,0.8-0.3,1.2c0.1,0.1,7.4,11.4,19.6,25.6c9,10.4,22.1,24.2,37.6,36L128.2,335.4z"/>
			</g>
		</g>
		<g>
			<path class="st2" d="M130.9,321.2c-4.2-8.5-12.3-26.2-15.3-44.3c-4.5-27-17-28.8-22-21.3c-13.7,20.4,19.1,58.1,29.5,69.2
				L130.9,321.2z"/>
			<g>
				<path class="st3" d="M127.9,322.6c-8-11.2-13.8-23.3-17.6-32.2c-5-11.9-7.4-20.8-7.5-20.8c-0.1-0.3-0.4-0.5-0.7-0.4
					c-0.3,0.1-0.5,0.4-0.4,0.7c0,0.1,2.5,9.1,7.5,21c3.8,8.9,9.6,21.1,17.6,32.3L127.9,322.6z"/>
			</g>
		</g>
		<g>
			<path class="st1" d="M431.1,196.6c8.4-9.9,26.8-33,37.5-58.4c15.4-36.5,33.7-34.7,38.2-22.6c11.6,31.4-39.8,70.4-61.3,85
				L431.1,196.6z"/>
			<g>
				<path class="st2" d="M436.1,198c14.9-13,27.1-28,35.4-39.2c11-15,17.5-26.7,17.5-26.8c0.2-0.4,0.8-0.6,1.2-0.3
					c0.4,0.2,0.6,0.8,0.3,1.2c-0.1,0.1-6.6,11.9-17.6,27c-8.1,11.1-20.2,25.8-34.8,38.7L436.1,198z"/>
			</g>
		</g>
		<g>
			<path class="st2" d="M432.4,184c3.6-8.8,10.3-27,11.9-45.3c2.4-27.3,14.8-30,20.4-22.9c15.1,19.4-14.7,59.3-24.2,71.2L432.4,184z
				"/>
			<g>
				<g>
					<g>
						<path class="st3" d="M435.5,185.2c7.1-11.7,12.1-24.3,15.1-33.5c4.1-12.2,5.9-21.3,5.9-21.3c0.1-0.3,0.4-0.5,0.7-0.5
							c0.3,0.1,0.5,0.4,0.5,0.7c0,0.1-1.8,9.2-5.9,21.5c-3.1,9.2-8,21.7-15.1,33.5L435.5,185.2z"/>
					</g>
				</g>
			</g>
		</g>
		<path class="st2" d="M174.7,93.2c1.6-14.7,0.3-29-7-25.5s-4.8,28,5.2,44.1l2.1,6.3c-7.1-11.9-21.2-22-27-18.2
			c-5.8,3.7,4.2,9.6,14.3,13.4c7.6,2.9,12,6.6,14,8.6l9.8,29.8c-11.2-18.8-33.5-34.7-42.7-28.7c-9.1,5.9,6.7,15.2,22.6,21.3
			c12,4.6,18.9,10.3,22.1,13.6l2,5.9c1.1-0.2,2.2-0.4,3.2-0.6L181.7,128c0.8-3,2.3-7.2,5.4-12c5.8-9,10.3-19.7,3.5-19.3
			c-5.9,0.4-10.7,12.7-11,24.9l-4-12.2C174.9,105.3,174,99.6,174.7,93.2z"/>
		<path class="st1" d="M480.5,268.1c4-14.3,10.4-27.1,15.9-21.1s-5.9,27.8-21.1,39.1l-4.3,5.1c11-8.4,27.8-12.6,31.8-7
			s-7.5,7.4-18.2,7.2c-8.2-0.1-13.5,1.7-16.2,2.9l-20.1,24c17.4-13.3,44-19.8,50.3-10.9s-11.9,11.7-28.9,11.4
			c-12.9-0.2-21.4,2.6-25.6,4.5l-4,4.8c-0.9-0.6-1.9-1.1-2.8-1.7l24-28.6c0.4-3.1,0.5-7.6-0.6-13.2c-2-10.5-2.3-22.1,3.9-19.2
			c5.4,2.5,5.3,15.7,1.1,27.2l8.3-9.9C475.8,279.3,478.8,274.3,480.5,268.1z"/>
		<g>
			<g>
				<g>
					<path class="st2" d="M146.8,245.8h16.5c-8.9-1.5-30.9-10.9-32.9-29.9c-2.5-24-11.1-23.7-25.5-26.3s-18.4,1.6-27.6-17.1
						s-29.6-21-29.6-21s18.6,20.3,15.1,35.8c-3.6,15.4,8.8,21.6,18.7,23.6c9.9,1.9,7.5,15.2,11.3,23.8c1.7,3.9,8.7,7.9,15.9,11.2
						h38.1V245.8z"/>
				</g>
			</g>
			<g>
				<g>
					<g>
						<path class="st3" d="M111.1,222.1c0.7,7.2,4.9,15.8,11.1,22.9c0.2,0.3,0.4,0.5,0.7,0.8h1.9c-0.5-0.6-1-1.1-1.5-1.7
							c-5.9-6.8-10.1-15.3-10.7-22.1c-1.1-10.9-9.5-18.3-27.2-24c-10.3-3.3-13.6-15.9-13.6-16c-0.1-0.4-0.5-0.6-0.8-0.5
							c-0.4,0.1-0.6,0.5-0.5,0.8c0.1,0.5,3.5,13.4,14.5,17C102,204.8,110.1,211.9,111.1,222.1z"/>
					</g>
				</g>
			</g>
		</g>
		<g>
			<g>
				<g>
					<path class="st1" d="M138.3,245.8h34.6v-0.1c1-3.5,1.5-7,1.6-10.6c0.4-12.1,0.6-42.5-7.2-50.3c-9.8-9.8-29.6-13.6-27-28.4
						c2.6-14.8,0.7-35.2-22.7-38.5S76.1,77.8,76.1,77.8s-7.7,29.6,13.3,52.3s13.2,26,8.9,47.4c-4.2,21.4-9.2,33.1,22.8,49.4
						C129.9,231.4,135.2,238.2,138.3,245.8z"/>
				</g>
			</g>
			<g>
				<g>
					<path class="st3" d="M120.5,154.8c-1.5,27.7,4.2,43.3,18.7,50.7c9.1,4.6,18.7,14.9,25,26.8c2,3.8,4,8.3,5.6,13.5h2.1
						c-1.6-5.6-3.8-10.5-5.9-14.5c-6.6-12.5-16.3-22.8-25.9-27.6c-13.7-6.9-19.1-21.9-17.6-48.7c1-17.2-15.2-28.7-15.8-29.2
						c-0.5-0.3-1.1-0.2-1.4,0.3s-0.2,1.1,0.2,1.4C105.7,127.5,121.4,138.7,120.5,154.8z"/>
				</g>
			</g>
		</g>
		<g>
			<g>
				<g>
					<path class="st2" d="M340.2,190.9H357l17.1-11.1c4.2-6.6,7.9-13.8,7.2-18c-1.5-9.2-10.8-19-3.5-26.1c7.2-7,14.2-18.9,2.8-29.9
						c-11.4-11-6.9-38.2-6.9-38.2s-15.8,13.1-13.3,33.8c2.5,20.6-3.1,19.4-13.8,29.4c-10.7,10-18.1,14.4-7,35.9
						C343.7,174.6,342.9,183.4,340.2,190.9z"/>
				</g>
			</g>
			<g>
				<g>
					<g>
						<path class="st3" d="M359,161.4c3.3,6.4,4.5,15.9,3.2,25.2c0,0.3-0.1,0.7-0.2,1l-1.6,1c0.1-0.8,0.3-1.5,0.4-2.2
							c1.3-9,0.1-18.3-3.1-24.4c-5-9.7-2-20.5,9.7-35c6.8-8.4,2.7-20.7,2.6-20.8c-0.1-0.4,0.1-0.7,0.4-0.9c0.4-0.1,0.8,0.1,0.9,0.4
							c0.2,0.5,4.4,13.1-2.9,22.2C357.3,141.9,354.3,152.2,359,161.4z"/>
					</g>
				</g>
			</g>
		</g>
		<g>
			<g>
				<path class="st1" d="M403.6,190.9c2-1.6,4.2-3.1,6.7-4.4c32-16.3,27-28.1,22.8-49.4c-4.2-21.4-12.1-24.7,8.9-47.4
					s13.3-52.3,13.3-52.3s-18.2,36.7-41.6,40.1c-23.4,3.3-25.3,23.8-22.7,38.5c2.6,14.8-17.1,18.6-27,28.4
					c-7.1,7.1-7.6,32.9-7.3,46.6h46.9V190.9z"/>
			</g>
			<g>
				<g>
					<path class="st2" d="M367.8,190.9c6.3-11.5,15.6-21.4,24.5-25.9c14.5-7.3,20.3-22.9,18.7-50.7c-0.9-16.1,14.8-27.3,15-27.4
						c0.5-0.3,0.6-1,0.2-1.4c-0.3-0.5-1-0.6-1.4-0.3c-0.7,0.5-16.8,12-15.8,29.2c1.5,26.8-3.9,41.8-17.6,48.7
						c-9.6,4.9-19.3,15.2-25.9,27.6c0,0,0,0,0,0.1L367.8,190.9L367.8,190.9z"/>
				</g>
			</g>
		</g>
	</g>
	<g>
		<g>
			<g>
				<path class="st2" d="M445.4,150.4v180.9c0,7.5-6,13.5-13.5,13.5H123.6c-7.5,0-13.5-6-13.5-13.5V150.4c0-7.5,6-13.5,13.5-13.5
					h308.3C439.4,136.9,445.4,142.9,445.4,150.4z"/>
				<path class="st3" d="M430.5,159.6v162.5c0,4.8-3.9,8.7-8.7,8.7H133.6c-2,0-3.9-0.7-5.4-1.9c-0.4-0.3-0.8-0.6-1.1-1
					c-1.4-1.5-2.2-3.6-2.2-5.8V159.6c0-4.8,3.9-8.7,8.7-8.7h288.2c1.6,0,3.1,0.4,4.4,1.2c1.2,0.7,2.2,1.7,3,2.9
					C430,156.3,430.5,157.9,430.5,159.6z"/>
				<g>
					<g>
						<path class="st4" d="M229.8,272.7H218V288h-29v-15.2h-46.1v-19l37.7-54.6h30.7l-33.5,50.4h12.1V236H218v13.6h11.8V272.7z"/>
					</g>
					<g>
						<path class="st4" d="M234,243.5c0-29.5,16.8-46.5,40.3-46.5s40.3,17,40.3,46.5S297.8,290,274.3,290S234,273,234,243.5z
							 M284.4,243.5c0-17.1-4.3-22.5-10.2-22.5c-5.8,0-10.2,5.3-10.2,22.5s4.3,22.5,10.2,22.5S284.4,260.7,284.4,243.5z"/>
					</g>
					<g>
						<path class="st4" d="M408,272.7h-11.8V288h-29.1v-15.2H321v-19l37.7-54.6h30.7l-33.5,50.4H368V236h28.2v13.6H408V272.7z"/>
					</g>
				</g>
			</g>
			<path class="st2" d="M476.7,337.6v1.2c0,5.8-1.8,11.1-5,15.4c-4.8,6.6-12.6,10.9-21.3,10.9H105.1c-8.8,0-16.6-4.3-21.3-10.9
				c-3.1-4.3-5-9.7-5-15.4v-1.2H476.7z"/>
			<path class="st5" d="M233.1,337.6v0.3c0,2.1,1.4,3.8,3.1,3.8h81.2c1.7,0,3.1-1.7,3.1-3.8v-0.3H233.1z"/>
			<g>
				<path class="st6" d="M430.5,159.6v9.6H125v-9.6c0-1.8,0.6-3.6,1.6-5c1.6-2.2,4.2-3.7,7.1-3.7h288.2c2.9,0,5.5,1.5,7.1,3.7
					C429.9,156,430.5,157.7,430.5,159.6z"/>
				<path class="st3" d="M356.7,162.9h-162c-0.4,0-0.8-0.3-0.8-0.8v-3.3c0-0.4,0.3-0.8,0.8-0.8h162c0.4,0,0.8,0.3,0.8,0.8v3.3
					C357.5,162.6,357.1,162.9,356.7,162.9z"/>
				<path class="st2" d="M154.9,160.5v1.8c0,0.5-0.6,0.8-1,0.6l-1.6-0.9l-1.6-0.9c-0.4-0.3-0.4-0.9,0-1.2l1.6-0.9l1.6-0.9
					c0.4-0.3,1,0.1,1,0.6V160.5z"/>
				<path class="st2" d="M162.9,160.5v1.8c0,0.5,0.6,0.8,1,0.6l1.6-0.9l1.6-0.9c0.4-0.3,0.4-0.9,0-1.2l-1.6-0.9l-1.6-0.9
					c-0.4-0.3-1,0.1-1,0.6V160.5z"/>
			</g>
			<path class="st6" d="M428.9,154.6H126.5c1.6-2.2,4.2-3.7,7.1-3.7h288.2C424.8,150.9,427.4,152.4,428.9,154.6z"/>
			<path class="st7" d="M368,316.9H183.4c-3.6,0-6.5-2.9-6.5-6.5l0,0c0-3.6,2.9-6.5,6.5-6.5H368c3.6,0,6.5,2.9,6.5,6.5l0,0
				C374.5,313.9,371.6,316.9,368,316.9z"/>
		</g>
	</g>
	<g>
		<g>
			<path class="st8" d="M393.1,285.7c-1.4,2.7-2.8,5.1-4.1,7.1c-9.9,15-17.3,11.8-21.2,7.2c-1.4-1.6-2.4-3.4-3.1-5
				c-1.2-2.6-1.6-4.9-1.7-5.9l1.8,0.4c2.2,1,5.8,2.4,8.5,2c0.3-0.1,0.7-0.1,1-0.3c2.4-0.9,5.7-5.6,7.9-9.2c1.4-2.4,2.4-4.2,2.4-4.2
				L393.1,285.7z"/>
			<path class="st9" d="M393.1,285.7c-1.4,2.7-2.8,5.1-4.1,7.1c-2.8-3.1-5.4-7.6-6.9-10.7c1.4-2.4,2.4-4.2,2.4-4.2L393.1,285.7z"/>
			<path class="st9" d="M375.3,292c0,0-2,6.1-10.7,3c-1.2-2.6-1.6-4.9-1.7-5.9l1.8,0.4c2.2,1,5.8,2.4,8.5,2L375.3,292z"/>
		</g>
		<g>
			<path class="st8" d="M456.6,307.7c-2,11.5-11.4,3.1-12.2-5.9c-0.2-2-0.2-4.1-0.2-6.1c0-1.9,0.1-3.7,0.3-5.3
				c0-0.3,0.1-0.6,0.1-0.9c0.3-3.9,0.8-6.7,0.8-6.7l6.1-7.5c0,0,0.7,2.1,1.6,5.4c0.8,3,1.9,7,2.6,11.2c0.2,1.3,0.4,2.5,0.6,3.8
				C457,299.9,457.2,304.2,456.6,307.7z"/>
			<path class="st9" d="M453.2,280.6c-1.8,3.3-4.8,7.8-8.7,9.8c0-0.3,0.1-0.6,0.1-0.9c0.3-3.9,0.8-6.7,0.8-6.7l6.1-7.5
				C451.5,275.2,452.3,277.3,453.2,280.6z"/>
			<path class="st9" d="M456.4,295.6c-2.2,1.3-9.5,0.7-12.2,0.1c0-2.2,0.2-4.3,0.3-6.2l11.2,2.3C456,293,456.2,294.3,456.4,295.6z"
				/>
		</g>
		<path class="st1" d="M391.9,257c0,0-8.9,15.7-10.3,21c0,0,6.1,10.1,11.6,11.3l2-6.9C395.1,282.3,395.4,260.7,391.9,257z"/>
		<g>
			<path class="st1" d="M411.4,248.9l-19.5,8.1l8.6,66.8c0,0,26.8,3.8,40.7,0V257l-19-8.5L411.4,248.9z"/>
			<g>
				<g>
					<path class="st2" d="M407.4,285.3c3.3,3.4,7.9,6.6,14.3,8.5c0.2,0.1,0.5-0.1,0.5-0.4l0,0c0-0.2-0.1-0.4-0.3-0.4
						c-6.2-1.8-10.7-4.9-13.9-8.2c-0.2-0.2-0.7-0.1-0.7,0.2l0,0C407.3,285.1,407.3,285.2,407.4,285.3z"/>
				</g>
				<g>
					<path class="st2" d="M407.5,279L407.5,279c0,0.1,0,0.2,0.1,0.2c0.2,0.4,0.5,0.8,0.7,1.2c1.5,2.2,4.5,5.1,9.6,6.5h0.1
						c0.2,0,0.3-0.1,0.4-0.3c0.1-0.2-0.1-0.4-0.3-0.5c-5.5-1.5-8.4-4.8-9.9-7.3C408.1,278.4,407.5,278.6,407.5,279z"/>
				</g>
				<g>
					<g>
						<path class="st2" d="M408.2,261.6L408.2,261.6c0,0.2,0.2,0.4,0.5,0.4c4.7-0.9,8.3-3,10.7-4.8c3.4-2.4,5.1-4.8,5.2-4.9
							c0.1-0.2,0.1-0.4-0.1-0.5s-0.4-0.1-0.5,0.1c-0.1,0.1-5.7,7.5-15.5,9.4C408.4,261.2,408.2,261.4,408.2,261.6z"/>
					</g>
				</g>
			</g>
		</g>
		<g>
			<g>
				<g>
					<path class="st8" d="M378.3,366.3l2.1-10.8h-7.1l-1.7,10.2C371.5,365.7,374.4,367.6,378.3,366.3z"/>
					<path class="st2" d="M373.4,366.2c0,0-1.6-2.1-2.8-2c-1.2,0.1-10.7,7.8-14,8.5s-2.6,3.1-2,4.3c0.6,1.2,26.2-0.8,26.2-0.8
						s0.6-7.6-0.2-9.9C379.6,364,376,366.8,373.4,366.2z"/>
					<g>
						<g>
							<g>
								<g>
									<path class="st3" d="M368.2,371.6c0.1,0,0.2,0,0.4,0c0.2-0.1,0.3-0.4,0.2-0.6c0-0.1-1.1-1.8-2.4-2.5
										c-1.8-0.9-3.2,0.1-3.3,0.2c-0.2,0.2-0.2,0.4-0.1,0.6c0.2,0.2,0.4,0.2,0.6,0.1c0,0,1-0.7,2.3-0.1c1.1,0.5,2,2.1,2,2.1
										C368,371.5,368,371.6,368.2,371.6z"/>
								</g>
							</g>
						</g>
						<g>
							<g>
								<g>
									<path class="st3" d="M369.5,370.3c0.1,0,0.2,0,0.4,0c0.2-0.1,0.3-0.4,0.2-0.6c0-0.1-1.1-1.8-2.4-2.5
										c-1.8-0.9-3.2,0.1-3.3,0.2c-0.2,0.2-0.2,0.4-0.1,0.6c0.2,0.2,0.4,0.2,0.6,0.1c0,0,1-0.7,2.3-0.1c1.1,0.5,2,2.1,2,2.1
										C369.3,370.2,369.4,370.3,369.5,370.3z"/>
								</g>
							</g>
						</g>
						<g>
							<path class="st3" d="M366.3,372.7c0.1,0,0.2,0,0.4,0c0.2-0.1,0.3-0.4,0.2-0.6c0-0.1-1.1-1.8-2.4-2.5
								c-1.8-0.9-3.2,0.1-3.3,0.2c-0.2,0.2-0.2,0.4-0.1,0.6c0.2,0.2,0.4,0.2,0.6,0.1c0,0,1-0.7,2.3-0.1c1.1,0.5,2,2.1,2,2.1
								C366.1,372.6,366.2,372.7,366.3,372.7z"/>
						</g>
					</g>
				</g>
			</g>
			<g>
				<g>
					<g>
						<path class="st4" d="M410.7,317.1c0,0-12.2-30.4-19.8-29.2c-11.8,1.9-19.6,38-18.7,71.7l8.1,0.5c0,0,9-31.8,10.7-40.1
							c0,0,6.2,21.6,20.3,18.6C421.6,336.4,414.8,325.8,410.7,317.1z"/>
					</g>
				</g>
			</g>
			<g>
				<path class="st10" d="M379.3,358.7l-1-0.2c0-0.1,2.2-11.9,4.8-23.9c5.3-24.4,7.3-25.5,8-25.9c0.5-0.3,1-0.2,1.3-0.1
					c1.3,0.6,2,3.4,3,7.7c1.6,7,3.9,16.5,10.1,20.5l-0.5,0.8c-6.5-4.2-8.8-14-10.5-21.1c-0.8-3.4-1.6-6.7-2.4-7
					c-0.1,0-0.2-0.1-0.4,0.1C388.8,311.2,382.7,339.9,379.3,358.7z"/>
			</g>
			<polygon class="st10" points="371.4,357.2 381.3,358 381.5,358 381,361.3 371.2,360.6 			"/>
		</g>
		<g>
			<g>
				<path class="st4" d="M407.6,338.8c0,0,14.2,2.7,33.1-0.7c-1.6-7.8-5.1-13.9-10.8-19.3l-25.4,1.8
					C402.8,326.6,404,332.7,407.6,338.8z"/>
				<g>
					<g>
						<path class="st2" d="M403.5,363.9c0,0-3.4-0.7-4.3-0.7c-0.9,0.1-6.8,7.2-8.8,7.7c-3.7,0.9-3.5,6.8-1.2,7
							c6.7,0.5,17.9-2.8,17.9-2.8s0.7-7.6,0.1-9.9C406.7,362.9,405.4,364.6,403.5,363.9z"/>
						<path class="st8" d="M405.5,364.4l2.5-9.7h-7.1l-1.6,9.3C399.2,364.1,401.6,365.7,405.5,364.4z"/>
						<g>
							<g>
								<g>
									<g>
										<path class="st3" d="M398.3,370.6c0.1,0,0.2,0,0.4-0.1c0.2-0.2,0.2-0.4,0.1-0.6c-0.1-0.1-1.3-1.7-2.7-2.2
											c-1.9-0.7-3.2,0.5-3.2,0.5c-0.2,0.2-0.2,0.5,0,0.6c0.2,0.2,0.5,0.2,0.6,0c0,0,0.9-0.8,2.3-0.3c1.2,0.4,2.2,1.9,2.2,1.9
											C398.1,370.5,398.2,370.6,398.3,370.6z"/>
									</g>
								</g>
							</g>
							<g>
								<path class="st3" d="M399.5,369.2c0.1,0,0.2,0,0.4-0.1c0.2-0.2,0.2-0.4,0.1-0.6c-0.1-0.1-1.3-1.7-2.7-2.2
									c-1.9-0.7-3.2,0.5-3.2,0.5c-0.2,0.2-0.2,0.5,0,0.6c0.2,0.2,0.5,0.2,0.6,0c0,0,0.9-0.8,2.3-0.3c1.2,0.4,2.2,1.9,2.2,1.9
									C399.3,369.1,399.4,369.2,399.5,369.2z"/>
							</g>
							<g>
								<path class="st3" d="M396.6,371.9c0.1,0,0.2,0,0.4-0.1c0.2-0.2,0.2-0.4,0.1-0.6c-0.1-0.1-1.3-1.7-2.7-2.2
									c-1.9-0.7-3.2,0.5-3.2,0.5c-0.2,0.2-0.2,0.5,0,0.6c0.2,0.2,0.5,0.2,0.6,0c0,0,0.9-0.8,2.3-0.3c1.2,0.4,2.2,1.9,2.2,1.9
									C396.4,371.8,396.5,371.9,396.6,371.9z"/>
							</g>
						</g>
					</g>
				</g>
				<path class="st4" d="M438.9,338.6c-1.8,0.4-3.5,0.4-5,0c-0.5-0.1-1-0.2-1.5-0.4c-9.5-3.4-13.8-18.2-13.8-18.2
					c-1.6,8.3-11,40.1-11,40.1l-1.5-0.2l-1-0.1l-5.5-0.7c-1.1-32.7,7.2-69.3,18.9-71.1c7.6-1.2,19.8,29.2,19.8,29.2
					C442.5,325.8,449.3,336.4,438.9,338.6z"/>
				<g>
					<path class="st10" d="M433.9,338.7c-0.5-0.1-1-0.2-1.5-0.4c-3.5-5.6-5.3-13.4-6.7-19.7c-1.2-5-2.2-9.7-3.7-10.5
						c-0.2-0.1-0.4-0.1-0.7-0.1c-1.2,0.4-4.1,4.4-9.6,27c-2.6,10.8-4.8,21.5-5.5,24.9c-0.1,0.7-0.2,1.1-0.2,1.1l-1-0.2
						c0,0,0.1-0.4,0.2-1c0.7-3.3,2.9-14.1,5.5-25c6.5-26.5,9.3-27.4,10.3-27.7c0.5-0.2,1-0.1,1.5,0.1c1.8,1,2.8,5.3,4.2,11.2
						C428.2,325,430.1,333.2,433.9,338.7z"/>
				</g>
				<polygon class="st10" points="399,356.8 408.8,358.5 409,358.6 408.1,361.8 398.5,360.2 				"/>
			</g>
		</g>
		<path class="st1" d="M441.2,257l12.6,18.3c0,0-5.6,10.6-11.1,11.7c0,0-5.7-10-6.4-15.1C435.7,266.8,439.2,257.4,441.2,257z"/>
		<g>
			<path class="st2" d="M405,228.6c0,7.1,4.4,12,11.5,12s12.1-5.3,12.1-12.4c0-7.1-4.2-12.5-11.3-12.5
				C408.7,215.8,405,221.5,405,228.6z"/>
			<path class="st2" d="M405.4,224.7c0,0-5.3-5.2-3.3-7.7s4.6-0.1,5.4-2.5s1.1-5.4,4.3-4.2c3.2,1.2,3.4,3.3,6.4,1.5
				c3.1-1.8,2.4,1.2,5.1,2.6c2.7,1.3,4.6,1.1,4.1,3.7c-0.4,2.6,2.6,3.1,1.3,6c-1.2,2.9-2.7,1.4-2.7,1.4L405.4,224.7z"/>
			<g>
				<path class="st9" d="M406.6,231.7c0,0-2-2.6-3.4-0.5c-1.5,2.2,0.6,8.6,4.2,7L406.6,231.7z"/>
				<g>
					<path class="st11" d="M406.5,236.3c-0.1,0-0.3-0.1-0.3-0.2c-0.6-2-2.6-2.8-2.6-2.8c-0.2-0.1-0.2-0.2-0.2-0.4
						c0.1-0.2,0.2-0.2,0.4-0.2c0.1,0,2.4,0.9,3,3.2C406.9,236.1,406.8,236.2,406.5,236.3C406.6,236.3,406.6,236.3,406.5,236.3z"/>
				</g>
				<g>
					<g>
						<g>
							<path class="st11" d="M404.4,235.3c-0.1,0-0.1,0-0.2,0c-0.1-0.1-0.2-0.3-0.1-0.4c0,0,0.4-0.6,1.1-0.9c0.2-0.1,0.3,0,0.4,0.2
								s0,0.3-0.2,0.4C404.8,234.9,404.5,235.3,404.4,235.3C404.6,235.2,404.5,235.3,404.4,235.3z"/>
						</g>
					</g>
				</g>
			</g>
			<g>
				<path class="st9" d="M426.9,231.7c0,0,2-2.6,3.4-0.5c1.5,2.2-0.6,8.6-4.2,7L426.9,231.7z"/>
				<g>
					<path class="st11" d="M426.9,236.3c0.1,0,0.3-0.1,0.3-0.2c0.6-2,2.6-2.8,2.6-2.8c0.2-0.1,0.2-0.2,0.2-0.4
						c-0.1-0.2-0.2-0.2-0.4-0.2c-0.1,0-2.4,0.9-3,3.2C426.6,236.1,426.7,236.2,426.9,236.3L426.9,236.3z"/>
				</g>
				<g>
					<g>
						<g>
							<path class="st11" d="M429,235.3c0.1,0,0.1,0,0.2,0c0.1-0.1,0.2-0.3,0.1-0.4c0,0-0.4-0.6-1.1-0.9c-0.2-0.1-0.3,0-0.4,0.2
								s0,0.3,0.2,0.4C428.6,234.9,428.9,235.3,429,235.3C428.8,235.2,428.9,235.3,429,235.3z"/>
						</g>
					</g>
				</g>
			</g>
			<path class="st8" d="M421.6,243.7v6.4c0,0-1.9,3.3-4.5,3.5s-4.9-2.8-4.9-2.8v-6.6L421.6,243.7z"/>
			<path class="st9" d="M421.6,243.7v2.8c-1.7,1.9-4.8,2.4-9.4,1.7v-4.1L421.6,243.7z"/>
			<path class="st8" d="M405.5,231.5c0.1,1.4,0.3,2.8,0.5,4.2c0.9,4.7,2.8,9.4,7,10.8c9.4,3.4,12.8-4.7,14.1-9.4
				c0.1-0.5,0.3-1.1,0.4-1.7c0.2-1.1,0.4-2.4,0.5-3.6c0.2-1.5,0.3-3.1,0.3-4.4c0.1-2.9-1.6-5.5-4.3-6.5c-3.9-1.5-9.7-2.7-15.3,0.5
				c-2.1,1.2-3.3,3.3-3.4,5.7C405.4,228.2,405.4,229.8,405.5,231.5z"/>
			<path class="st2" d="M405.5,231.5c0.1,1.4,0.3,2.8,0.5,4.2c0.9,4.7,2.8,9.4,7,10.8c9.4,3.4,12.8-4.7,14.1-9.4
				c0.1-0.5,0.3-1.1,0.4-1.7c0.2-1.1,0.4-2.4,0.5-3.6h-1.4c-0.3,0.9-1.8,6.2-2.3,7c-1.1-2.6-6.5-0.9-6.5-0.9l0,0
				c-0.3,0.1-0.7,0.2-1,0.2c-0.4,0-0.7-0.1-1-0.2c0,0-5.4-1.8-6.5,0.7c-0.5-0.8-2.3-6.2-2.6-6.8L405.5,231.5z M416.8,239
				c6.2-0.8,5.2,2.5,5.2,2.5c-0.7,0.6-1.3,1.1-1.7,1.3c-1.3,0.7-2.7,1-3.6,1s-1.2,0.2-3.6-1.1c-0.4-0.2-0.8-0.6-1.3-1l0,0l0,0
				C411.6,241.1,410.6,238,416.8,239z"/>
			<path class="st2" d="M412.7,232.5c0,0.7-0.4,1.2-0.8,1.2s-0.8-0.6-0.8-1.2s0.4-1.2,0.8-1.2C412.3,231.3,412.7,231.8,412.7,232.5z
				"/>
			<path class="st2" d="M422,232.5c0,0.7-0.4,1.2-0.8,1.2s-0.8-0.6-0.8-1.2c0-0.7,0.4-1.2,0.8-1.2S422,231.8,422,232.5z"/>
			<path class="st2" d="M408.5,229.5c0,0,2.6-2,5.1-1.6l0.1,1.3c0,0-3.4,0.6-4.8,1.8C408.6,230.5,408.5,230,408.5,229.5z"/>
			<path class="st2" d="M424.6,229.5c0,0-2.6-2-5.1-1.6l-0.1,1.3c0,0,3.4,0.6,4.8,1.8C424.5,230.5,424.6,230,424.6,229.5z"/>
			<g>
				<path class="st9" d="M416.8,237.3c0.5,0,1-0.2,1.1-0.2c0.2-0.1,0.2-0.2,0.2-0.4c-0.1-0.2-0.2-0.2-0.4-0.2
					c-0.3,0.1-0.9,0.3-1.2,0.1c-0.1,0-0.1-0.1-0.1-0.3c-0.1-1.1,0.2-4.6,0.2-4.7c0-0.2-0.1-0.3-0.3-0.3c-0.2,0-0.3,0.1-0.3,0.3
					c0,0.1-0.3,3.6-0.2,4.8c0,0.4,0.3,0.6,0.4,0.7C416.4,237.3,416.6,237.3,416.8,237.3z"/>
			</g>
			<path class="st3" d="M416.4,239.5c-2.3,0-2.4,3.4-0.1,3.5c0.1,0,0.2,0,0.3,0c0.1,0,0.2,0,0.3,0c2.3-0.1,2.2-3.5-0.1-3.5H416.4z"
				/>
			<path class="st2" d="M428,231.7h-1.4c0.2-1.4,0.4-3.8-0.8-4.2c-3.6-1.1,1.1-3.6-0.6-4.9c-1.6-1.3-5.7-0.7-8.5-0.8
				s-7.4-0.1-8.5,0.2s-0.5,2.1-0.1,3.5s-1.4,3-1.6,4.5c-0.1,0.4-0.1,1,0,1.7h-1.1c-0.1-1.8-0.2-3.4-0.1-4.8c0-2.4,1.3-4.5,3.4-5.7
				c5.6-3.2,11.4-2,15.3-0.5c2.7,1,4.4,3.7,4.3,6.5C428.3,228.7,428.2,230.2,428,231.7z"/>
		</g>
		<g>
			<path class="st2" d="M490.8,338.1c-1.7,6.7-6.5,11.7-13.8,14.6c-1.9,0.8-3.8,1.3-5.4,1.6c0.1-0.1,0.1-0.1,0.2-0.2
				c1.1-1.6,2.1-3.3,2.9-5.1c4.8-1.8,10.3-5.2,12.1-12c1.7-6.5-1-16.3-6.9-24.9c-4.6-6.8-15.2-18.5-33.6-20.8
				c-16.1-2-26.5,0.5-35.7,2.6c-7.8,1.8-15.2,3.6-24.3,2c-6.6-1.2-11.7-2.9-16.2-4.3c-8.3-2.7-13.8-4.5-22.4-1
				c-14.6,6-21.2,30.9-21.2,31.1l-4.1-1.1c0.3-1.1,7.1-27.2,23.8-34c10.1-4.2,16.9-1.9,25.4,0.9c4.4,1.4,9.3,3.1,15.6,4.2
				c8.2,1.4,14.9-0.1,22.6-1.9c9.6-2.2,20.4-4.8,37.2-2.7c7.9,1,15.2,3.7,21.8,8c5.7,3.8,10.9,8.8,14.8,14.6
				C489.9,319.5,492.8,330.3,490.8,338.1z"/>
			<g>
				<path class="st4" d="M286,361l9.5-30.1c4.1-12.8,17.8-19.9,30.6-15.9l0,0c12.8,4.1,19.9,17.8,15.9,30.6l-9.5,30.1
					C313.1,369.6,305.3,367.2,286,361z"/>
			</g>
		</g>
		<g>
			<g>
				<path class="st8" d="M360.8,289.6c0,0,0.8-1.9,2.5-4.5c0.8-1.3,2.8-1.9,3-0.4c0.2,1.2-0.7,2.2-0.9,3.4c0,0,0.4-0.7,1.4-2.5
					c0.9-1.6,2.1-1.5,2.2-0.3c0.2,1.1-0.2,1.1-0.5,2c-0.4,1.2-0.9,2.6-0.9,2.6s0.4-1.7,1.8-3.6c0.6-0.9,1.3-1.9,2.3-0.5
					c0.5,0.7-0.2,2.5-0.7,4.5c0,0,1-2.7,2.4-3.3c1.1-0.5,1.6-0.1,1.2,1.4c-0.5,1.9-0.9,2.4-1.3,3.5s-1.9,2.7-3,2.4
					c-1.2-0.4-1.4-1.2-2.2-1.2c-0.8-0.1-2.1,0-2.6-0.5s-1.1-0.6-2-0.6C362.5,292,360.7,290.8,360.8,289.6z"/>
			</g>
		</g>
		<g>
			<path class="st8" d="M443.3,291.5c0,0,0.5-2,1.8-4.8c0.6-1.4,2.2-2.4,2.7-0.9c0.4,1.2-0.1,2.3-0.1,3.5c0,0,0.3-0.7,1-2.6
				c0.6-1.7,1.8-1.8,2.2-0.6c0.3,1.1,0,1.1-0.1,2c-0.2,1.2-0.5,2.7-0.5,2.7s0.2-1.7,1.3-3.8c0.5-1,1-2,2.2-0.8
				c0.6,0.6,0.2,2.5,0,4.6c0,0,0.2-2.4,1.5-3.3c1-0.7,1.9-0.7,1.8,0.9c-0.2,2-0.5,2.5-0.7,3.7s-1.4,3-2.6,2.8s-1.6-1-2.4-0.9
				s-2,0.3-2.6-0.1s-1.2-0.4-2.1-0.3C445.4,293.5,443.4,292.7,443.3,291.5z"/>
		</g>
		<g>
			<g>
				<g>
					<path class="st2" d="M281.3,390.1c0,0.8-0.3,1.6-0.9,2.1s-1.3,0.9-2.1,0.9h-12v-6h12C279.9,387.1,281.3,388.5,281.3,390.1z"/>
				</g>
				<g>
					<path class="st2" d="M281.3,411.5c0,0.8-0.3,1.6-0.9,2.1c-0.5,0.5-1.3,0.9-2.1,0.9h-12v-6h12
						C279.9,408.5,281.3,409.8,281.3,411.5z"/>
				</g>
				<g>
					<g>
						<rect x="266.3" y="387.1" class="st12" width="5.4" height="6"/>
					</g>
				</g>
				<g>
					<g>
						<rect x="266.3" y="408.5" class="st12" width="5.4" height="6"/>
					</g>
				</g>
			</g>
			<g>
				<path class="st2" d="M218.9,397.3l-0.2,4.7c-49.5-1.7-87.9-5.4-114.2-10.7c-22.5-4.6-36.5-10.5-43-18.1
					c-3.3-3.9-4.7-8.3-4.1-13.2c1-8.2,8.3-14.2,21.6-18c0.2,1.6,0.5,3.2,1,4.7c-9,2.6-17,6.9-17.9,13.9c-0.4,3.5,0.6,6.6,3,9.5
					c5.7,6.7,19.3,12.2,40.4,16.6C131.5,392,169.6,395.6,218.9,397.3z"/>
			</g>
			<g>
				<path class="st4" d="M266.3,425.2h-31.6c-13.5,0-24.4-10.9-24.4-24.4l0,0c0-13.5,10.9-24.4,24.4-24.4h31.6
					C266.3,396.7,266.3,404.9,266.3,425.2z"/>
			</g>
		</g>
	</g>
	<g>
		<g>
			<g>
				<path class="st4" d="M483.1,210v16.2c0,2.1-1.7,3.9-3.9,3.9h-29.4l-8.9,3.2c-0.9,0.3-1.8-0.6-1.4-1.5l3.4-8.7V210
					c0-2.1,1.7-3.9,3.9-3.9h32.4C481.4,206.1,483.1,207.8,483.1,210z"/>
			</g>
			<g>
				<g>
					<circle class="st3" cx="454.8" cy="218.5" r="2.8"/>
					<circle class="st3" cx="463.7" cy="218.5" r="2.8"/>
					<circle class="st3" cx="472.6" cy="218.5" r="2.8"/>
				</g>
			</g>
		</g>
		<g>
			<g>
				<path class="st4" d="M334.9,111.6c0-3.6,3-6.6,6.6-6.6s6.6,3,6.6,6.6s-3,6.6-6.6,6.6S334.9,115.2,334.9,111.6z M336.9,111.6
					c0,2.5,2,4.5,4.5,4.5s4.5-2,4.5-4.5s-2-4.5-4.5-4.5C339,107,336.9,109.1,336.9,111.6z"/>
			</g>
			<g>
				<path class="st4" d="M312.8,83.2c0-3.6,3-6.6,6.6-6.6s6.6,3,6.6,6.6s-3,6.6-6.6,6.6C315.7,89.8,312.8,86.9,312.8,83.2z
					 M314.8,83.2c0,2.5,2,4.5,4.5,4.5s4.5-2,4.5-4.5s-2-4.5-4.5-4.5C316.9,78.7,314.8,80.7,314.8,83.2z"/>
			</g>
			<g>
				<g>
					<g>
						<path class="st1" d="M314.8,114.9c0.6,0,1-0.5,1-1v-4.6c0-0.6-0.5-1-1-1c-0.6,0-1,0.5-1,1v4.6
							C313.8,114.4,314.3,114.9,314.8,114.9z"/>
					</g>
					<g>
						<path class="st1" d="M314.8,122.9c0.6,0,1-0.5,1-1v-4.6c0-0.6-0.5-1-1-1c-0.6,0-1,0.5-1,1v4.6
							C313.8,122.4,314.3,122.9,314.8,122.9z"/>
					</g>
				</g>
				<g>
					<g>
						<path class="st1" d="M308.4,116.6h4.1c0.6,0,1-0.5,1-1c0-0.6-0.5-1-1-1h-4.1c-0.6,0-1,0.5-1,1S307.9,116.6,308.4,116.6z"/>
					</g>
					<g>
						<path class="st1" d="M317.2,116.6h4.1c0.6,0,1-0.5,1-1c0-0.6-0.5-1-1-1h-4.1c-0.6,0-1,0.5-1,1
							C316.1,116.1,316.6,116.6,317.2,116.6z"/>
					</g>
				</g>
			</g>
			<g>
				<g>
					<g>
						<g>
							<path class="st2" d="M342.8,84.4c0.6,0,1-0.5,1-1v-4.6c0-0.6-0.5-1-1-1c-0.6,0-1,0.5-1,1v4.6
								C341.7,83.9,342.2,84.4,342.8,84.4z"/>
						</g>
						<g>
							<path class="st2" d="M342.8,92.4c0.6,0,1-0.5,1-1v-4.6c0-0.6-0.5-1-1-1c-0.6,0-1,0.5-1,1v4.6
								C341.7,91.9,342.2,92.4,342.8,92.4z"/>
						</g>
					</g>
					<g>
						<g>
							<path class="st2" d="M336.3,86.1h4.1c0.6,0,1-0.5,1-1c0-0.6-0.5-1-1-1h-4.1c-0.6,0-1,0.5-1,1
								C335.3,85.7,335.8,86.1,336.3,86.1z"/>
						</g>
						<g>
							<path class="st2" d="M345.1,86.1h4.1c0.6,0,1-0.5,1-1c0-0.6-0.5-1-1-1h-4.1c-0.6,0-1,0.5-1,1C344,85.7,344.5,86.1,345.1,86.1
								z"/>
						</g>
					</g>
				</g>
			</g>
		</g>
		<g>
			<g>
				<g>
					<path class="st4" d="M143.8,66.3c0-3.6,3-6.6,6.6-6.6s6.6,3,6.6,6.6c0,3.6-3,6.6-6.6,6.6S143.8,69.9,143.8,66.3z M145.9,66.3
						c0,2.5,2,4.5,4.5,4.5s4.5-2,4.5-4.5c0-2.5-2-4.5-4.5-4.5C147.9,61.7,145.9,63.8,145.9,66.3z"/>
				</g>
			</g>
			<g>
				<path class="st1" d="M118.4,78.7c0-3.6,3-6.6,6.6-6.6c3.6,0,6.6,3,6.6,6.6s-3,6.6-6.6,6.6C121.3,85.3,118.4,82.3,118.4,78.7z
					 M120.4,78.7c0,2.5,2,4.5,4.5,4.5s4.5-2,4.5-4.5s-2-4.5-4.5-4.5C122.5,74.2,120.4,76.2,120.4,78.7z"/>
			</g>
			<g>
				<g>
					<g>
						<path class="st4" d="M114.6,96.5c0.6,0,1-0.5,1-1v-4.6c0-0.6-0.5-1-1-1c-0.6,0-1,0.5-1,1v4.6C113.5,96,114,96.5,114.6,96.5z"
							/>
					</g>
					<g>
						<path class="st4" d="M114.6,104.5c0.6,0,1-0.5,1-1v-4.6c0-0.6-0.5-1-1-1c-0.6,0-1,0.5-1,1v4.6
							C113.5,104,114,104.5,114.6,104.5z"/>
					</g>
				</g>
				<g>
					<g>
						<path class="st4" d="M108.1,98.2h4.1c0.6,0,1-0.5,1-1c0-0.6-0.5-1-1-1h-4.1c-0.6,0-1,0.5-1,1S107.6,98.2,108.1,98.2z"/>
					</g>
					<g>
						<path class="st4" d="M116.9,98.2h4.1c0.6,0,1-0.5,1-1c0-0.6-0.5-1-1-1h-4.1c-0.6,0-1,0.5-1,1
							C115.8,97.7,116.3,98.2,116.9,98.2z"/>
					</g>
				</g>
			</g>
			<g>
				<g>
					<g>
						<g>
							<path class="st2" d="M133.2,53.7c0.6,0,1-0.5,1-1v-4.6c0-0.6-0.5-1-1-1c-0.6,0-1,0.5-1,1v4.6
								C132.1,53.3,132.6,53.7,133.2,53.7z"/>
						</g>
						<g>
							<path class="st2" d="M133.2,61.7c0.6,0,1-0.5,1-1v-4.6c0-0.6-0.5-1-1-1c-0.6,0-1,0.5-1,1v4.6
								C132.1,61.3,132.6,61.7,133.2,61.7z"/>
						</g>
					</g>
					<g>
						<g>
							<path class="st2" d="M126.7,55.4h4.1c0.6,0,1-0.5,1-1c0-0.6-0.5-1-1-1h-4.1c-0.6,0-1,0.5-1,1C125.7,55,126.2,55.4,126.7,55.4
								z"/>
						</g>
						<g>
							<path class="st2" d="M135.5,55.4h4.1c0.6,0,1-0.5,1-1c0-0.6-0.5-1-1-1h-4.1c-0.6,0-1,0.5-1,1C134.4,55,134.9,55.4,135.5,55.4
								z"/>
						</g>
					</g>
				</g>
			</g>
		</g>
	</g>
	<g>
		<ellipse class="st13" cx="109.4" cy="222.6" rx="44.8" ry="44.8"/>
		<path class="st13" d="M116.5,258.3c8.1-1.6,15.7-6,21.3-12.9c12.6-15.7,10.1-38.7-5.7-51.3c-5-4-10.6-6.4-16.5-7.4
			c4.2,1.3,8.2,3.4,11.8,6.3c16.2,13,18.7,36.9,5.5,53.4C128.5,251.9,122.8,255.9,116.5,258.3z"/>
		<path class="st14" d="M70,260.5l-4.3,5.4l10.9,8.7l4.3-5.4c23.1,14.1,53.7,9.3,71.1-12.5c18.9-23.6,15.1-58-8.5-76.9
			s-58-15.1-76.9,8.5C49.3,210.1,51.2,241,70,260.5z M74.4,194.6c15.5-19.3,43.6-22.4,62.9-7s22.4,43.6,7,62.9
			c-15.5,19.3-43.6,22.4-62.9,7S59,213.9,74.4,194.6z"/>
		<path class="st4" d="M59.4,262.9L6.2,329.3c-3.7,4.6,17.9,21.9,21.6,17.3L81,280.2c0.8-1,0.7-2.5-0.4-3.3l-17.9-14.3
			C61.6,261.7,60.2,261.9,59.4,262.9z"/>
		<g>
			
				<rect x="18.3" y="319.5" transform="matrix(0.6252 -0.7805 0.7805 0.6252 -252.3907 141.0603)" class="st15" width="4.7" height="27.6"/>
			
				<rect x="63.7" y="262.9" transform="matrix(0.6252 -0.7805 0.7805 0.6252 -191.1603 155.2553)" class="st15" width="4.7" height="27.6"/>
		</g>
	</g>
	<path class="st4" d="M231.1,39.6c-2.3,2.4-5.7,3.6-10.1,3.6s-7.8-1.2-10.1-3.6c-3.1-2.9-4.7-7.2-4.7-12.7c0-5.7,1.6-9.9,4.7-12.7
		c2.3-2.4,5.7-3.6,10.1-3.6s7.8,1.2,10.1,3.6c3.1,2.8,4.7,7.1,4.7,12.7C235.8,32.4,234.2,36.7,231.1,39.6z M227.1,34.9
		c1.5-1.9,2.3-4.6,2.3-8c0-3.5-0.8-6.1-2.3-8s-3.5-2.8-6.1-2.8s-4.6,0.9-6.1,2.8s-2.3,4.6-2.3,8c0,3.5,0.8,6.2,2.3,8
		c1.5,1.9,3.6,2.8,6.1,2.8S225.6,36.8,227.1,34.9z M259.2,39.6c-1.9,2.4-4.9,3.6-8.8,3.6c-3.9,0-6.8-1.2-8.8-3.6s-2.9-5.2-2.9-8.6
		c0-3.3,1-6.1,2.9-8.6c1.9-2.4,4.9-3.6,8.8-3.6c3.9,0,6.8,1.2,8.8,3.6c1.9,2.4,2.9,5.3,2.9,8.6S261.2,37.2,259.2,39.6z M254.5,36.3
		c0.9-1.2,1.4-3,1.4-5.3s-0.5-4-1.4-5.3s-2.3-1.9-4-1.9s-3.1,0.6-4,1.9s-1.4,3-1.4,5.3s0.5,4,1.4,5.3s2.3,1.9,4,1.9
		C252.2,38.1,253.5,37.5,254.5,36.3z M285.6,22c1.9,2,2.8,4.9,2.8,8.7c0,4-0.9,7.1-2.7,9.2c-1.8,2.1-4.2,3.2-7,3.2
		c-1.8,0-3.3-0.5-4.6-1.4c-0.7-0.5-1.3-1.2-1.9-2.2v11.9h-5.9V19.6h5.7V23c0.6-1,1.3-1.8,2.1-2.3c1.3-1,2.9-1.5,4.8-1.5
		C281.5,19,283.7,20,285.6,22z M281,26.3c-0.8-1.4-2.1-2-3.9-2c-2.2,0-3.7,1-4.5,3.1c-0.4,1.1-0.6,2.5-0.6,4.1
		c0,2.7,0.7,4.5,2.1,5.6c0.8,0.6,1.8,0.9,3,0.9c1.7,0,3-0.6,3.8-1.9c0.9-1.3,1.3-3,1.3-5.1C282.2,29.2,281.8,27.6,281,26.3z
		 M297.2,35.1c0.1,1.1,0.4,1.8,0.8,2.3c0.7,0.8,2.1,1.2,4.1,1.2c1.2,0,2.1-0.2,2.8-0.5c0.7-0.3,1-0.9,1-1.6c0-0.7-0.3-1.2-0.8-1.5
		c-0.6-0.3-2.6-0.9-6.2-1.8c-2.6-0.6-4.4-1.4-5.5-2.4c-1.1-0.9-1.6-2.3-1.6-4.1c0-2.1,0.8-3.9,2.5-5.4s4-2.3,7-2.3
		c2.9,0,5.2,0.6,7,1.7s2.8,3.1,3.1,5.9h-6c-0.1-0.8-0.3-1.4-0.7-1.8c-0.7-0.8-1.8-1.2-3.4-1.2c-1.3,0-2.2,0.2-2.8,0.6
		s-0.8,0.9-0.8,1.4c0,0.7,0.3,1.2,0.9,1.5s2.7,0.9,6.2,1.7c2.4,0.6,4.2,1.4,5.3,2.5c1.2,1.1,1.8,2.6,1.8,4.3c0,2.3-0.8,4.1-2.5,5.5
		s-4.3,2.1-7.8,2.1c-3.6,0-6.2-0.8-8-2.3c-1.7-1.5-2.6-3.4-2.6-5.8C291,35.1,297.2,35.1,297.2,35.1z M318.4,11.6h6.6v7.8l-1.7,14.4
		h-3.1l-1.7-14.4L318.4,11.6L318.4,11.6z M318.5,36.3h6.3v6.1h-6.3V36.3z"/>
</g>
</svg>
