<?xml version="1.0" encoding="utf-8"?>
<!-- Generator: Adobe Illustrator 22.0.0, SVG Export Plug-In . SVG Version: 6.00 Build 0)  -->
<svg version="1.1" id="Layer_1" xmlns="http://www.w3.org/2000/svg" xmlns:xlink="http://www.w3.org/1999/xlink" x="0px" y="0px"
	 viewBox="0 0 187.9 83.9" style="enable-background:new 0 0 187.9 83.9;" xml:space="preserve">
<style type="text/css">
	.st0{clip-path:url(#SVGID_2_);fill:#23282D;}
	.st1{clip-path:url(#SVGID_2_);fill:#FFFFFF;}
	.st2{clip-path:url(#SVGID_2_);}
	.st3{fill:#FFFFFF;}
	.st4{fill:#D1D3D4;}
	.st5{fill:#23282D;}
	.st6{fill:none;stroke:#FFFFFF;stroke-miterlimit:10;}
	.st7{clip-path:url(#SVGID_2_);fill:#BF954B;}
	.st8{fill:#BF954B;}
</style>
<g>
	<g>
		<defs>
			<circle id="SVGID_1_" cx="47.5" cy="44.3" r="30.7"/>
		</defs>
		<clipPath id="SVGID_2_">
			<use xlink:href="#SVGID_1_"  style="overflow:visible;"/>
		</clipPath>
		<circle class="st0" cx="47.5" cy="44.3" r="30.7"/>
		<path class="st1" d="M77.6,56.6c0,0-20.8-5.6-38.2-3.3c0,0-18.6,2.1-21.1,4.3s0.7,13.7,14.3,17.5s25.4,3.7,32.9-0.8
			S77.6,56.6,77.6,56.6z"/>
		<g class="st2">
			<path class="st3" d="M74.1,56.4l-0.6-24.6L58.2,27l-14.9,5l-0.7,21C42.7,53,56,53,74.1,56.4z"/>
			<path class="st4" d="M58.2,27l-14.9,5l-0.7,21c0,0,6,0,15.4,1L58.2,27z"/>
			<path class="st5" d="M49.3,53.3l-10.8-0.2l-2-15.2c0.8,1.3,3.6,1.7,8.1,5.1c4.2,3.3,5.2,10.2,5.2,10.2L49.3,53.3z"/>
			<polygon class="st5" points="74.1,41.2 58.4,37.1 42.1,41.2 42.1,37.6 58.1,33.2 74.1,37.6 			"/>
			<path class="st3" d="M19.4,57.1c0,0,0.5-8.4,5.4-12.5c4.3-3.7,7.5-4.2,8.3-5.5c1.1-1.6,0.9-1.9,1.6-2.1H35
				c0.7,0.2,0.5,0.4,1.6,2.1c0.8,1.3,4,1.8,8.3,5.5c4.9,4.1,5.4,12.5,5.4,12.5H19.4z"/>
			<line class="st6" x1="34.9" y1="31.3" x2="34.9" y2="37.5"/>
			<circle class="st3" cx="34.9" cy="35.4" r="1.1"/>
			<circle class="st3" cx="34.9" cy="33.1" r="0.9"/>
			<path class="st3" d="M36.7,27.3c0.3,0.4,0.5,0.8,0.5,1.3c0,1.2-1,2.2-2.2,2.2s-2.2-1-2.2-2.2c0-0.5,0.2-1,0.5-1.3
				c-0.5,0.5-0.8,1.1-0.8,1.8c0,1.4,1.1,2.5,2.5,2.5c1.4,0,2.5-1.1,2.5-2.5C37.4,28.4,37.1,27.7,36.7,27.3z"/>
		</g>
		<path class="st0" d="M76.6,57.7c0,0-11.1-4.3-35.4-4.1c0,0,16.9-2.1,35.8,2.7L76.6,57.7z"/>
		<path class="st7" d="M76,59.2c0,0-31.9-4.9-56.6,0v0.5c0,0,31.6-2.6,49,3.9c0,0-29.3-4.3-49-1.3c0,0,7.1,14.9,29.3,15
			C70.9,77.4,76.1,59.9,76,59.2z"/>
	</g>
	<path class="st8" d="M18.5,19.8c-6.3,6.4-9.2,14.9-9.2,24.5c0,19.6,20.5,34.8,36.2,34.8c3,0,4.6,0.1,7.6-0.7
		c-1.7,0.1-2.2,0.2-3.8,0.2c-19.8,0-35.8-15.3-35.8-34.6c0-8.1,2.8-15.5,7.5-21.4c0,0,2.1-2.4,4.6-4.7c2.3-2,4.9-4.9,5.4-5.5
		c0.4-0.5,2.3-2.9,2.8-3.9c0.5-0.9,0.5-1.4,0.3-1.7c-0.2-0.5-1.4-0.3-1.7,0c-0.3,0.3-0.7,0.5-1.1,0.5s-1.1,0-1.8,0.7
		s-6.1,6.5-6.1,6.5l-15.7,3l-1.1,4L7.6,20L18.5,19.8z"/>
	<polygon class="st8" points="27.6,17.2 24.4,21.8 27.9,25.7 27,27.7 29.7,25 	"/>
	<g>
		<path class="st5" d="M103.7,32.2v4.6h-3.3c0,2.2-0.5,3.9-1.5,5.1c-1,1.1-2.4,1.7-4.3,1.7c-1.2,0-2.5-0.2-3.9-0.7l0.9-4.1
			c1,0.2,1.7,0.3,2.3,0.3c0.6,0,1.1-0.2,1.4-0.5c0.3-0.4,0.4-1,0.4-1.8v-15h4.7v10.4H103.7z"/>
		<path class="st5" d="M117.2,32.2v4.6c-3.3,0-5.6-0.9-6.7-2.8c-0.8,0.9-1.7,1.6-2.8,2c-1.1,0.5-2.4,0.7-3.9,0.7
			c-0.7,0-1.3-0.2-1.8-0.7c-0.5-0.5-0.7-1-0.7-1.7c0-0.7,0.2-1.2,0.7-1.6c0.5-0.4,1.1-0.6,1.8-0.6c1.1,0,2.1-0.3,2.8-1
			c0.7-0.7,1.1-1.7,1.1-3v-6.4h4.7v6.4c0,1.2,0.3,2.1,1,2.8C114.1,31.8,115.4,32.2,117.2,32.2z M105,44.2c-0.5-0.5-0.8-1.1-0.8-1.9
			c0-0.7,0.3-1.4,0.8-1.9c0.5-0.5,1.1-0.8,1.9-0.8c0.7,0,1.4,0.3,1.9,0.8c0.5,0.5,0.8,1.1,0.8,1.9c0,0.7-0.3,1.4-0.8,1.9
			s-1.1,0.8-1.9,0.8C106.1,45,105.5,44.7,105,44.2z M111.2,44.2c-0.5-0.5-0.8-1.1-0.8-1.9c0-0.7,0.3-1.4,0.8-1.9
			c0.5-0.5,1.1-0.8,1.9-0.8s1.4,0.3,1.9,0.8c0.5,0.5,0.8,1.1,0.8,1.9c0,0.7-0.3,1.4-0.8,1.9c-0.5,0.5-1.1,0.8-1.9,0.8
			S111.7,44.7,111.2,44.2z"/>
		<path class="st5" d="M115.4,32.9c0.5-0.4,1.1-0.7,1.8-0.7h6.3v4.6h-6.3c-0.7,0-1.3-0.2-1.8-0.7c-0.5-0.4-0.7-1-0.7-1.7
			C114.7,33.9,114.9,33.3,115.4,32.9z"/>
		<path class="st5" d="M121.7,32.9c0.5-0.4,1.1-0.7,1.8-0.7h6.3v4.6h-6.3c-0.7,0-1.3-0.2-1.8-0.7c-0.5-0.4-0.7-1-0.7-1.7
			C121,33.9,121.2,33.3,121.7,32.9z"/>
		<path class="st5" d="M151,32.2v4.6h-21.3c-0.7,0-1.3-0.2-1.8-0.6c-0.5-0.4-0.7-1-0.7-1.6c0-0.7,0.2-1.3,0.7-1.7
			c0.5-0.4,1.1-0.6,1.8-0.6h2.3c-0.6-1.1-0.9-2.4-0.9-3.9c0-1.5,0.4-3,1.1-4.3c0.7-1.3,1.9-2.4,3.5-3.2s3.7-1.2,6.2-1.2h6.4v12.6
			H151z M143.6,24.4h-1.7c-2.2,0-3.7,0.4-4.7,1.1s-1.4,1.7-1.4,2.8c0,1.1,0.5,2.1,1.4,2.8c0.9,0.7,2.5,1.1,4.7,1.1h1.7V24.4z
			 M138.3,16.7c-0.5-0.5-0.8-1.1-0.8-1.9c0-0.7,0.3-1.4,0.8-1.9c0.5-0.5,1.1-0.8,1.9-0.8s1.4,0.3,1.9,0.8c0.5,0.5,0.8,1.1,0.8,1.9
			c0,0.7-0.3,1.4-0.8,1.9c-0.5,0.5-1.1,0.8-1.9,0.8S138.8,17.2,138.3,16.7z"/>
		<path class="st5" d="M180.3,19.7v17.2h-6.4c-1.4,0-2.6-0.2-3.5-0.6s-1.6-1.1-2.2-1.9c-0.6,0.8-1.4,1.4-2.2,1.9
			c-0.9,0.4-1.8,0.7-2.8,0.7H151c-0.7,0-1.3-0.2-1.8-0.7c-0.5-0.4-0.7-1-0.7-1.7c0-0.7,0.2-1.2,0.7-1.7c0.5-0.4,1.1-0.7,1.8-0.7h3.9
			V20.7h4.7v11.5h2.9c1.8,0,2.7-1.3,2.7-4v-7.5h4.7v7.5c0,1.4,0.3,2.4,0.8,3c0.5,0.6,1.4,1,2.5,1h2.3V19.7H180.3z"/>
	</g>
	<g>
		<path class="st8" d="M111.5,65h-2.9c-0.5,2-1.4,3.5-2.9,4.6c-1.4,1.1-3.3,1.6-5.5,1.6c-1.6,0-3-0.3-4.4-0.8
			c-1.3-0.6-2.4-1.4-3.2-2.6c-0.8-1.2-1.2-2.7-1.2-4.5c0-1.4,0.3-2.9,0.8-4.7h3.5c-0.4,1.6-0.6,2.9-0.6,4.1c0,3.3,1.7,4.9,5.1,4.9
			c1.7,0,2.9-0.5,3.7-1.4c0.8-0.9,1.2-2.3,1.2-4.2v-7.7h3.8v7.1h2.6V65z M98.7,54.8c-0.4-0.4-0.6-0.9-0.6-1.5c0-0.6,0.2-1.1,0.6-1.5
			c0.4-0.4,0.9-0.6,1.5-0.6c0.6,0,1.1,0.2,1.5,0.6c0.4,0.4,0.6,0.9,0.6,1.5c0,0.6-0.2,1.1-0.6,1.5c-0.4,0.4-0.9,0.6-1.5,0.6
			C99.6,55.5,99.1,55.3,98.7,54.8z"/>
		<path class="st8" d="M122.3,61.3V65c-2.7,0-4.5-0.7-5.4-2.2c-0.6,0.7-1.4,1.2-2.3,1.6c-0.9,0.4-1.9,0.6-3.1,0.6
			c-0.6,0-1-0.2-1.4-0.6c-0.4-0.4-0.6-0.8-0.6-1.4c0-0.5,0.2-1,0.6-1.3s0.9-0.5,1.5-0.5c0.9,0,1.7-0.3,2.3-0.8
			c0.6-0.5,0.9-1.3,0.9-2.4v-5.1h3.8v5.1c0,1,0.3,1.7,0.8,2.3C119.9,60.9,120.9,61.3,122.3,61.3z M112.6,70.8
			c-0.4-0.4-0.6-0.9-0.6-1.5c0-0.6,0.2-1.1,0.6-1.5c0.4-0.4,0.9-0.6,1.5-0.6c0.6,0,1.1,0.2,1.5,0.6c0.4,0.4,0.6,0.9,0.6,1.5
			c0,0.6-0.2,1.1-0.6,1.5c-0.4,0.4-0.9,0.6-1.5,0.6C113.5,71.5,113,71.2,112.6,70.8z M117.5,70.8c-0.4-0.4-0.6-0.9-0.6-1.5
			c0-0.6,0.2-1.1,0.6-1.5c0.4-0.4,0.9-0.6,1.5-0.6s1.1,0.2,1.5,0.6c0.4,0.4,0.6,0.9,0.6,1.5c0,0.6-0.2,1.1-0.6,1.5
			c-0.4,0.4-0.9,0.6-1.5,0.6S118,71.2,117.5,70.8z"/>
		<path class="st8" d="M134.9,52.2c1,0.6,1.8,1.5,2.4,2.6c0.6,1.1,0.9,2.3,0.9,3.6c0,1.4-0.3,2.6-0.9,3.5c-0.6,1-1.4,1.7-2.3,2.3
			c-1,0.5-2,0.8-3.2,0.8c-0.9,0-1.8-0.2-2.7-0.5c-0.9-0.3-1.7-0.8-2.4-1.4c-0.5,0.6-1.1,1.1-1.9,1.4s-1.6,0.5-2.5,0.5
			c-0.6,0-1-0.2-1.4-0.6c-0.4-0.4-0.6-0.8-0.6-1.4c0-0.5,0.2-1,0.6-1.3s0.9-0.5,1.5-0.5c0.5,0,0.9-0.1,1.2-0.3
			c0.3-0.2,0.5-0.5,0.6-0.8c0.1-0.3,0.3-0.9,0.4-1.6c0.2-0.7,0.3-1.2,0.4-1.4c0.5-1.9,1.3-3.4,2.4-4.4c1.1-1.1,2.5-1.6,4-1.6
			C132.7,51.2,133.9,51.5,134.9,52.2z M133.5,60.7c0.6-0.5,0.9-1.3,0.9-2.3c0-1-0.3-1.8-0.8-2.4c-0.6-0.6-1.3-1-2.2-1
			c-0.7,0-1.2,0.2-1.7,0.7c-0.4,0.5-0.8,1.2-1.1,2.2c-0.2,0.5-0.3,1-0.4,1.5c0,0.1-0.1,0.3-0.1,0.4c0,0.2-0.1,0.3-0.1,0.5
			c0.5,0.4,1,0.7,1.6,0.9s1.1,0.3,1.7,0.3C132.2,61.5,132.9,61.2,133.5,60.7z"/>
		<path class="st8" d="M149.9,61.3V65h-2.6c0,1.8-0.4,3.1-1.2,4.1s-1.9,1.4-3.4,1.4c-1,0-2-0.2-3.2-0.6l0.7-3.3
			c0.8,0.2,1.4,0.3,1.8,0.3c0.5,0,0.9-0.1,1.1-0.4c0.2-0.3,0.4-0.8,0.4-1.5v-12h3.8v8.3H149.9z"/>
		<path class="st8" d="M167.3,61.3V65H150c-0.7,0-1.2-0.2-1.6-0.6s-0.6-0.8-0.6-1.3c0-0.5,0.2-0.9,0.6-1.3c0.4-0.4,0.9-0.6,1.6-0.6
			h11c0-0.1,0-0.1,0-0.2c0-0.1,0-0.2-0.1-0.3c-0.2-1.3-0.5-2.3-0.9-3c-0.4-0.7-0.8-1.3-1.4-1.7c-1.2-0.8-2.6-1.2-4.3-1.2
			c-0.9,0-1.9,0.1-2.8,0.4l-0.4-3.5c1.3-0.3,2.5-0.5,3.7-0.5c2.3,0,4.3,0.6,6,1.7c1,0.7,1.8,1.6,2.4,2.8c0.6,1.2,1.1,2.6,1.4,4.4
			c0.1,0.4,0.2,0.6,0.3,0.8c0.2,0.2,0.4,0.3,0.6,0.3c0.2,0,0.6,0.1,1.1,0.1h0H167.3z"/>
		<path class="st8" d="M170.5,46.6h3.8V65h-6.9c-0.6,0-1.1-0.2-1.4-0.5c-0.4-0.4-0.6-0.8-0.6-1.3c0-0.5,0.2-1,0.6-1.3
			c0.4-0.4,0.9-0.5,1.4-0.5h3.1V46.6z"/>
		<path class="st8" d="M176.9,46.6h3.8V65h-3.8V46.6z"/>
	</g>
</g>
</svg>
