<?xml version="1.0" encoding="utf-8"?>
<!-- Generator: Adobe Illustrator 22.0.0, SVG Export Plug-In . SVG Version: 6.00 Build 0)  -->
<svg version="1.1" id="Слой_1" xmlns="http://www.w3.org/2000/svg" xmlns:xlink="http://www.w3.org/1999/xlink" x="0px" y="0px"
	 viewBox="0 0 4000 1612" style="enable-background:new 0 0 4000 1612;" xml:space="preserve">
<style type="text/css">
	.st0{clip-path:url(#SVGID_2_);fill:#F2F2F2;}
	.st1{clip-path:url(#SVGID_2_);}
	.st2{fill:#CCCCCC;}
	.st3{fill:#FFFFFF;}
	.st4{opacity:0.5;fill:#CCCCCC;enable-background:new    ;}
	.st5{opacity:0.5;}
	.st6{fill:#F39892;}
	.st7{clip-path:url(#SVGID_2_);fill:#F39892;}
	.st8{clip-path:url(#SVGID_2_);fill:#CCCCCC;}
	.st9{fill:#9CD499;}
	.st10{clip-path:url(#SVGID_4_);fill:#A2DFF2;}
	.st11{clip-path:url(#SVGID_6_);fill:#9CD499;}
	.st12{clip-path:url(#SVGID_8_);fill:#CCCCCC;}
	.st13{clip-path:url(#SVGID_10_);fill:#F39892;}
	.st14{clip-path:url(#SVGID_12_);fill:#E7F3FE;}
	.st15{clip-path:url(#SVGID_2_);fill:#FFFFFF;}
</style>
<g>
	<defs>
		<rect id="SVGID_1_" y="0" width="4000" height="1612"/>
	</defs>
	<clipPath id="SVGID_2_">
		<use xlink:href="#SVGID_1_"  style="overflow:visible;"/>
	</clipPath>
	<path class="st0" d="M3342,875c158.3-164.6-617.9-737.5-1259-789.7C1492.8,37.2,713.1,270,1504.7,614.2
		C2259,942.1,3259.2,961,3342,875z"/>
	<path class="st0" d="M243.7,759.5c369.7-467.7,1146,26.3,1810.3,146.3s1744.8-70.7,1742.1,455.7
		c-2.9,561.2-242.5,876.9-1556.8,1027.7s-1916-313.9-2087.9-808.6C17.7,1195.4,144.9,884.5,243.7,759.5z"/>
	<g class="st1">
		<path class="st2" d="M2382.8,476h-341.5c-8.8,0-15.9-7.2-15.9-15.9v-122c0-8.8,7.2-15.9,15.9-15.9h341.5c8.8,0,15.9,7.2,15.9,15.9
			v122C2398.7,468.9,2391.6,476,2382.8,476z"/>
		<path class="st2" d="M2070.5,452.8v84.9l97.8-97.8C2168.3,439.9,2072.5,452.8,2070.5,452.8z"/>
		<path class="st3" d="M2365.9,460.8h-307.7c-7.4,0-13.5-6.1-13.5-13.5V351c0-7.4,6.1-13.5,13.5-13.5h307.7
			c7.4,0,13.5,6.1,13.5,13.5v96.3C2379.4,454.7,2373.4,460.8,2365.9,460.8z"/>
		<path class="st2" d="M2227,367.9h-151.2c-3.6,0-6.6-3-6.6-6.6s3-6.6,6.6-6.6H2227c3.6,0,6.6,3,6.6,6.6
			C2233.6,365,2230.7,367.9,2227,367.9z"/>
		<path class="st2" d="M2353.3,393.3h-280.4c-2,0-3.7-1.7-3.7-3.7v-0.1c0-2,1.7-3.7,3.7-3.7h280.4c2,0,3.7,1.7,3.7,3.7v0.1
			C2357,391.6,2355.3,393.3,2353.3,393.3z"/>
		<path class="st2" d="M2353.3,407.7h-280.4c-2,0-3.7-1.7-3.7-3.7l0,0c0-2,1.7-3.7,3.7-3.7h280.4c2,0,3.7,1.7,3.7,3.7v0.1
			C2357,406.1,2355.3,407.7,2353.3,407.7z"/>
		<g>
			<path class="st2" d="M2295.3,455.5h-9.2c-1.9,0-3.5-1.6-3.5-3.5v-7.6c0-1.9,1.6-3.5,3.5-3.5h9.2c1.9,0,3.5,1.6,3.5,3.5v7.6
				C2298.8,453.9,2297.3,455.5,2295.3,455.5z"/>
			<path class="st2" d="M2324.8,455.5h-9.2c-1.9,0-3.5-1.6-3.5-3.5v-7.6c0-1.9,1.6-3.5,3.5-3.5h9.2c1.9,0,3.5,1.6,3.5,3.5v7.6
				C2328.3,453.9,2326.7,455.5,2324.8,455.5z"/>
			<path class="st2" d="M2354.3,455.5h-9.2c-1.9,0-3.5-1.6-3.5-3.5v-7.6c0-1.9,1.6-3.5,3.5-3.5h9.2c1.9,0,3.5,1.6,3.5,3.5v7.6
				C2357.8,453.9,2356.2,455.5,2354.3,455.5z"/>
		</g>
	</g>
	<g class="st1">
		<path class="st4" d="M2118.1,906.2c6.4-23,11.1-46.8,13.9-71.2l-73.5-33.1c0.4-7,0.6-14,0.6-21c0-19.6-1.5-38.8-4.2-57.6l70-39.9
			c-5.1-23.9-12-47.1-20.6-69.5l-80.4,4.9c-11-24-24.4-46.8-39.9-67.9l43.5-67.8c-15.5-18.6-32.4-36-50.6-52l-68.9,41.7
			c-20.7-16-43.1-30-66.8-41.7l7-80.3c-22.2-9.2-45.2-16.7-68.9-22.5l-41.7,68.9c-22-3.9-44.7-5.9-67.8-5.9c-3.6,0-7.2,0.1-10.7,0.2
			l-31.1-74.3c-24.4,2.2-48.3,6.2-71.5,12l-4.9,80.4c-25.3,8-49.5,18.6-72.2,31.4l-62.1-51.3c-20.4,13.2-39.6,27.9-57.6,44
			l33.1,73.5c-18.4,18.7-35,39.2-49.4,61.3l-78.9-16.6c-11.9,20.9-22.1,42.9-30.7,65.7l63.4,49.7c-7.5,24.8-12.7,50.6-15.1,77.2
			l-77.5,21.9c-0.1,4.8-0.2,9.5-0.2,14.3c0,19.7,1.2,39.1,3.6,58.1l79.2,14.5c4.9,26.2,12.5,51.4,22.4,75.5l-58.4,55.4
			c10.6,21.9,23,42.7,36.8,62.5l76.9-24c16.4,20.6,34.8,39.5,54.9,56.4l-26,76.3c19.4,14.3,40,27.2,61.5,38.4l57-56.9
			c23.8,10.5,48.8,18.8,74.9,24.4l12.4,79.6c22.9,3.5,46.4,5.3,70.3,5.3c0.7,0,1.4,0,2,0l24-76.9c26.7-1.8,52.7-6.2,77.6-13.1
			l48,64.7c23-7.9,45.2-17.6,66.5-28.9l-14.5-79.3c22.5-13.8,43.4-29.8,62.5-47.7l72.6,35c16.6-17.6,31.8-36.5,45.5-56.5l-49.7-63.4
			c13.4-22.4,24.6-46.3,33.3-71.3L2118.1,906.2z M1669.7,972.5c-105.8,0-191.5-85.7-191.5-191.5s85.7-191.5,191.5-191.5
			s191.5,85.7,191.5,191.5S1775.5,972.5,1669.7,972.5z"/>
		<g>
			<path class="st3" d="M1398.5,989.7c-1.5,0-3-0.7-4-2c-10.9-14.7-20.7-30.3-29.1-46.4c-1.3-2.4-0.3-5.5,2.1-6.7
				c2.4-1.3,5.5-0.3,6.7,2.1c8.2,15.7,17.7,30.9,28.3,45.1c1.6,2.2,1.2,5.3-1,7C1400.6,989.4,1399.5,989.7,1398.5,989.7z"/>
		</g>
		<g>
			<path class="st3" d="M1628.1,1124.8c-0.2,0-0.4,0-0.7,0c-60-7.9-117.1-31.5-165.3-68.4c-2.2-1.7-2.6-4.8-0.9-7s4.8-2.6,7-0.9
				c46.8,35.8,102.3,58.8,160.5,66.5c2.7,0.4,4.7,2.9,4.3,5.6C1632.7,1123,1630.6,1124.8,1628.1,1124.8z"/>
		</g>
	</g>
	<g class="st1">
		<rect x="1676.2" y="549.7" class="st2" width="909.1" height="504.4"/>
		<rect x="1686.2" y="560.7" class="st3" width="873.1" height="459.4"/>
		<g class="st5">
			<g>
				<path class="st2" d="M2528,984.1h-828c-1.1,0-2-0.9-2-2V567.2c0-1.1,0.9-2,2-2h828c1.1,0,2,0.9,2,2V982
					C2530,983.2,2529.1,984.1,2528,984.1z M1702,980.1h824V569.2h-824V980.1z"/>
			</g>
			<g>
				<path class="st2" d="M2528,914.9h-828c-1.1,0-2-0.9-2-2s0.9-2,2-2h828c1.1,0,2,0.9,2,2S2529.1,914.9,2528,914.9z"/>
			</g>
			<g>
				<path class="st2" d="M2528,845.8h-828c-1.1,0-2-0.9-2-2s0.9-2,2-2h828c1.1,0,2,0.9,2,2C2530,844.9,2529.1,845.8,2528,845.8z"/>
			</g>
			<g>
				<path class="st2" d="M2528,776.6h-828c-1.1,0-2-0.9-2-2s0.9-2,2-2h828c1.1,0,2,0.9,2,2C2530,775.7,2529.1,776.6,2528,776.6z"/>
			</g>
			<g>
				<path class="st2" d="M2528,707.5h-828c-1.1,0-2-0.9-2-2s0.9-2,2-2h828c1.1,0,2,0.9,2,2S2529.1,707.5,2528,707.5z"/>
			</g>
			<g>
				<path class="st2" d="M2528,638.4h-828c-1.1,0-2-0.9-2-2s0.9-2,2-2h828c1.1,0,2,0.9,2,2S2529.1,638.4,2528,638.4z"/>
			</g>
			<g>
				<path class="st2" d="M2390,984.1c-1.1,0-2-0.9-2-2V567.2c0-1.1,0.9-2,2-2s2,0.9,2,2V982C2392,983.2,2391.1,984.1,2390,984.1z"/>
			</g>
			<g>
				<path class="st2" d="M2252,984.1c-1.1,0-2-0.9-2-2V567.2c0-1.1,0.9-2,2-2s2,0.9,2,2V982C2254,983.2,2253.1,984.1,2252,984.1z"/>
			</g>
			<g>
				<path class="st2" d="M2114,984.1c-1.1,0-2-0.9-2-2V567.2c0-1.1,0.9-2,2-2s2,0.9,2,2V982C2116,983.2,2115.1,984.1,2114,984.1z"/>
			</g>
			<g>
				<path class="st2" d="M1976,984.1c-1.1,0-2-0.9-2-2V567.2c0-1.1,0.9-2,2-2s2,0.9,2,2V982C1978,983.2,1977.1,984.1,1976,984.1z"/>
			</g>
			<g>
				<path class="st2" d="M1838,984.1c-1.1,0-2-0.9-2-2V567.2c0-1.1,0.9-2,2-2s2,0.9,2,2V982C1840,983.2,1839.1,984.1,1838,984.1z"/>
			</g>
		</g>
		<g>
			<path class="st6" d="M1700,986.1c-1.5,0-2.9-0.8-3.6-2.2c-1-2-0.2-4.4,1.8-5.4l137.5-68.9l70.9-68.2l65.8-137.6
				c0.2-0.5,0.6-0.9,0.9-1.3l74.8-66.7c0.9-0.8,2.2-1.2,3.5-0.9c1.2,0.3,2.3,1.1,2.8,2.2l63.1,135.7l75,133.2l56.5-64.9
				c0.7-0.8,1.8-1.3,2.9-1.4c1.1-0.1,2.2,0.4,3,1.2l64.2,64.5l67.1-201.3c0.2-0.6,0.5-1.1,1-1.6l138-138.3c1.6-1.6,4.1-1.6,5.7,0
				c1.6,1.6,1.6,4.1,0,5.7l-137.3,137.6L2324.7,914c-0.4,1.3-1.5,2.3-2.9,2.6c-1.3,0.3-2.8-0.1-3.7-1.1l-65.8-66.1l-57.4,65.9
				c-0.9,1-2.1,1.5-3.4,1.4c-1.3-0.1-2.4-0.9-3.1-2l-77.8-138.3c-0.1-0.1-0.1-0.2-0.1-0.3l-60.9-130.9l-70.2,62.6l-65.8,137.6
				c-0.2,0.4-0.5,0.8-0.8,1.2l-71.9,69.1c-0.3,0.3-0.6,0.5-1,0.7l-138,69.1C1701.2,985.9,1700.6,986.1,1700,986.1z"/>
		</g>
		<g>
			<path class="st2" d="M1700,986.1c-1,0-2-0.4-2.8-1.1c-1.6-1.5-1.6-4.1-0.1-5.7l202.4-207.4c1.5-1.6,4-1.6,5.6-0.1l70.8,66.5
				l135.3-135.5c1.5-1.5,4-1.6,5.6-0.1l68.9,66.4l63.4-66.2c0.7-0.8,1.8-1.2,2.8-1.2s2.1,0.4,2.9,1.2L2388.9,837l135.5-271.6
				c1-2,3.4-2.8,5.4-1.8s2.8,3.4,1.8,5.4l-138,276.6c-0.6,1.2-1.7,2-2.9,2.2c-1.3,0.2-2.6-0.2-3.5-1.1l-135.1-135.4l-63.3,66.2
				c-0.7,0.8-1.7,1.2-2.8,1.2c-1,0-2.1-0.4-2.9-1.1l-69-66.4l-135.2,135.5c-1.5,1.5-4,1.6-5.6,0.1l-70.8-66.5l-199.6,204.6
				C1702,985.7,1701,986.1,1700,986.1z"/>
		</g>
	</g>
	<g class="st1">
		<path class="st2" d="M1706.5,806h-247V359.5c0-5.4,4.4-9.9,9.9-9.9H1762c5.4,0,9.9,4.4,9.9,9.9v381.1
			C1771.8,776.7,1742.6,806,1706.5,806z"/>
		<path class="st3" d="M1699.3,793.3h-236.2V366.8c0-5.2,4.2-9.4,9.4-9.4H1752c5.2,0,9.4,4.2,9.4,9.4v364.5
			C1761.3,765.6,1733.5,793.3,1699.3,793.3z"/>
		<path class="st2" d="M1638.6,703.9V696c0-6.2-4.3-11.2-9.7-11.2h-299.1c-5.4,0-9.7,5-9.7,11.2v7.9c0,55.7,39,100.9,87.2,100.9
			h305.6C1664.7,804.8,1637.9,764.7,1638.6,703.9z"/>
		<path class="st3" d="M1631.2,711.7v-6.4c0-5-4.1-9.1-9.1-9.1H1342c-5,0-9.1,4.1-9.1,9.1v6.4c0,45.1,36.5,81.6,81.6,81.6h298.2
			C1667.8,793.3,1631.2,771.5,1631.2,711.7z"/>
		<g>
			<path class="st2" d="M1730,539.3h-213c-6.7,0-12.2-5.5-12.2-12.2V411.3c0-6.7,5.5-12.2,12.2-12.2h213c6.7,0,12.2,5.5,12.2,12.2
				V527C1742.2,533.8,1736.8,539.3,1730,539.3z M1517,403.1c-4.5,0-8.2,3.7-8.2,8.2V527c0,4.5,3.7,8.2,8.2,8.2h213
				c4.5,0,8.2-3.7,8.2-8.2V411.3c0-4.5-3.7-8.2-8.2-8.2L1517,403.1L1517,403.1z"/>
		</g>
		<path class="st2" d="M1659.2,595.5H1425c-3.3,0-6-2.7-6-6s2.7-6,6-6h234.2c3.3,0,6,2.7,6,6
			C1665.3,592.7,1662.5,595.5,1659.2,595.5z"/>
		<path class="st2" d="M1659.2,617.5H1425c-3.3,0-6-2.7-6-6s2.7-6,6-6h234.2c3.3,0,6,2.7,6,6
			C1665.3,614.8,1662.5,617.5,1659.2,617.5z"/>
		<path class="st2" d="M1659.2,638.8H1425c-3.3,0-6-2.7-6-6s2.7-6,6-6h234.2c3.3,0,6,2.7,6,6
			C1665.3,636.1,1662.5,638.8,1659.2,638.8z"/>
		<g>
			<path class="st2" d="M1671.9,429.9h-7.8c-1.7,0-3-1.3-3-3v-6.4c0-1.7,1.3-3,3-3h7.8c1.7,0,3,1.3,3,3v6.4
				C1674.9,428.6,1673.5,429.9,1671.9,429.9z"/>
			<path class="st2" d="M1697,429.9h-7.8c-1.7,0-3-1.3-3-3v-6.4c0-1.7,1.3-3,3-3h7.8c1.7,0,3,1.3,3,3v6.4
				C1700,428.6,1698.6,429.9,1697,429.9z"/>
			<path class="st2" d="M1722.1,429.9h-7.8c-1.7,0-3-1.3-3-3v-6.4c0-1.7,1.3-3,3-3h7.8c1.7,0,3,1.3,3,3v6.4
				C1725.1,428.6,1723.7,429.9,1722.1,429.9z"/>
		</g>
		<rect x="1528.1" y="469.2" class="st2" width="31.5" height="52.1"/>
		<rect x="1615" y="473.5" class="st2" width="31.5" height="47.7"/>
		<rect x="1665.3" y="452.2" class="st2" width="31.5" height="69"/>
		<rect x="1570.7" y="489.7" class="st2" width="31.5" height="31.5"/>
	</g>
	<g class="st1">
		<path class="st2" d="M3413.3,866.3h112.2c0,61.6-50.7,112.2-112.2,112.2S3301,927.9,3301,866.3s50.7-112.2,112.2-112.2v112.2
			H3413.3z"/>
		<g>
			<path class="st6" d="M3544.3,850.6c0-62-50.2-112.2-112.2-112.2v112.2H3544.3z"/>
			<path class="st6" d="M3319.8,850.6c0,62,50.2,112.2,112.2,112.2C3370.5,962.9,3319.8,912.2,3319.8,850.6z"/>
			<path class="st6" d="M3432.1,738.4c-62,0-112.2,50.2-112.2,112.2C3319.8,789.1,3370.5,738.4,3432.1,738.4z"/>
			<path class="st6" d="M3432.1,962.9c62,0,112.2-50.2,112.2-112.2C3544.3,912.2,3493.6,962.9,3432.1,962.9z"/>
		</g>
	</g>
	<ellipse class="st7" cx="2050.7" cy="638.7" rx="10" ry="10"/>
	<ellipse class="st8" cx="1902.7" cy="774.5" rx="10" ry="10"/>
	<circle class="st8" cx="2114" cy="705.5" r="10"/>
	<circle class="st8" cx="2252" cy="705.5" r="10"/>
	<circle class="st7" cx="2390" cy="705.5" r="10"/>
	<g class="st1">
		
			<ellipse transform="matrix(0.7071 -0.7071 0.7071 0.7071 -163.1884 1215.6251)" class="st9" cx="1385.8" cy="804.8" rx="53.7" ry="53.7"/>
		<g>
			<path class="st3" d="M1380.5,823.5L1380.5,823.5c-0.9,0-1.7-0.4-2.2-1l-14.6-16.6c-1.1-1.2-1-3.1,0.3-4.2c1.2-1.1,3.1-1,4.2,0.3
				l12.5,14.2l28.9-28.3c1.2-1.2,3.1-1.1,4.2,0c1.2,1.2,1.1,3.1,0,4.2l-31.2,30.5C1382,823.2,1381.3,823.5,1380.5,823.5z"/>
		</g>
	</g>
	<g class="st1">
		<rect x="627" y="481.4" class="st2" width="35.7" height="195"/>
		<rect x="778.5" y="538.2" class="st2" width="35.7" height="138.3"/>
		<rect x="854.3" y="481.4" class="st2" width="35.7" height="195"/>
		<rect x="930" y="607.3" class="st2" width="35.7" height="69.1"/>
		<rect x="702.8" y="422.1" class="st2" width="35.7" height="254.4"/>
		<rect x="1006" y="538.2" class="st2" width="35.7" height="138.3"/>
	</g>
	<g class="st1">
		<rect x="2826.5" y="499.1" class="st2" width="35.7" height="103.4"/>
		<rect x="3284.7" y="532.7" class="st2" width="35.7" height="69.8"/>
		<rect x="2978" y="360.5" class="st2" width="35.7" height="242"/>
		<rect x="3053.7" y="493.7" class="st2" width="35.7" height="108.8"/>
		<rect x="3129.5" y="462.9" class="st2" width="35.7" height="139.6"/>
		<rect x="2902.2" y="430.8" class="st2" width="35.7" height="171.7"/>
		<rect x="3205.5" y="391" class="st2" width="35.7" height="211.5"/>
	</g>
	<g class="st1">
		<g>
			<defs>
				<path id="SVGID_3_" d="M513,868c-78.6,0-142.2,63.7-142.2,142.2c0,78.6,63.7,142.2,142.2,142.2s142.2-63.7,142.2-142.2
					C655.3,931.7,591.6,868,513,868z M513,1085.6c-41.6,0-75.3-33.7-75.3-75.3c0-41.6,33.7-75.3,75.3-75.3s75.3,33.7,75.3,75.3
					C588.4,1051.9,554.7,1085.6,513,1085.6z"/>
			</defs>
			<clipPath id="SVGID_4_">
				<use xlink:href="#SVGID_3_"  style="overflow:visible;"/>
			</clipPath>
			<path class="st10" d="M641.6,1088.9L513,1010.3l-23.3,148.9C550.2,1168.7,610.1,1140.4,641.6,1088.9z"/>
		</g>
		<g>
			<defs>
				<path id="SVGID_5_" d="M513,868c-78.6,0-142.2,63.7-142.2,142.2c0,78.6,63.7,142.2,142.2,142.2s142.2-63.7,142.2-142.2
					C655.3,931.7,591.6,868,513,868z M513,1085.6c-41.6,0-75.3-33.7-75.3-75.3c0-41.6,33.7-75.3,75.3-75.3s75.3,33.7,75.3,75.3
					C588.4,1051.9,554.7,1085.6,513,1085.6z"/>
			</defs>
			<clipPath id="SVGID_6_">
				<use xlink:href="#SVGID_5_"  style="overflow:visible;"/>
			</clipPath>
			<path class="st11" d="M641.7,1088.7c0.3-0.6,0.8-1.3,0.8-1.3c27.2-45.5,28.2-102,3.3-148.3c-45.5,23.8-18.4,9.4-132.8,71.2
				C641.8,1089,621.8,1076.9,641.7,1088.7z"/>
		</g>
		<g>
			<defs>
				<path id="SVGID_7_" d="M513,868c-78.6,0-142.2,63.7-142.2,142.2c0,78.6,63.7,142.2,142.2,142.2s142.2-63.7,142.2-142.2
					C655.3,931.7,591.6,868,513,868z M513,1085.6c-41.6,0-75.3-33.7-75.3-75.3c0-41.6,33.7-75.3,75.3-75.3s75.3,33.7,75.3,75.3
					C588.4,1051.9,554.7,1085.6,513,1085.6z"/>
			</defs>
			<clipPath id="SVGID_8_">
				<use xlink:href="#SVGID_7_"  style="overflow:visible;"/>
			</clipPath>
			<path class="st12" d="M371.7,958.2l141.3,52.1l132.6-71.7C583.6,823.9,416.7,837.7,371.7,958.2z"/>
		</g>
		<g>
			<defs>
				<path id="SVGID_9_" d="M513,868c-78.6,0-142.2,63.7-142.2,142.2c0,78.6,63.7,142.2,142.2,142.2s142.2-63.7,142.2-142.2
					C655.3,931.7,591.6,868,513,868z M513,1085.6c-41.6,0-75.3-33.7-75.3-75.3c0-41.6,33.7-75.3,75.3-75.3s75.3,33.7,75.3,75.3
					C588.4,1051.9,554.7,1085.6,513,1085.6z"/>
			</defs>
			<clipPath id="SVGID_10_">
				<use xlink:href="#SVGID_9_"  style="overflow:visible;"/>
			</clipPath>
			<path class="st13" d="M489.8,1159.2l23.3-148.9l-141.3-52.1C338.1,1048.3,397.8,1144.7,489.8,1159.2z"/>
		</g>
		<g>
			<defs>
				<path id="SVGID_11_" d="M513,868c-78.6,0-142.2,63.7-142.2,142.2c0,78.6,63.7,142.2,142.2,142.2s142.2-63.7,142.2-142.2
					C655.3,931.7,591.6,868,513,868z M513,1085.6c-41.6,0-75.3-33.7-75.3-75.3c0-41.6,33.7-75.3,75.3-75.3s75.3,33.7,75.3,75.3
					C588.4,1051.9,554.7,1085.6,513,1085.6z"/>
			</defs>
			<clipPath id="SVGID_12_">
				<use xlink:href="#SVGID_11_"  style="overflow:visible;"/>
			</clipPath>
			<path class="st14" d="M648.4,1087.2c25.5-44.9,27-100.4,3.9-146.5h0.1l-2.4-4.4c0-0.1-0.1-0.2-0.1-0.3l-1.9-3.6h-0.1
				c-15-26.1-36.4-46.8-62.1-60.2c-25.2-13.1-53.8-19-82.8-17c-60.4,4.2-111.3,41.1-134,96.7h-0.1l-1.7,4.7l-1.8,4.7h0.1
				c-14.2,42.2-9.5,88.2,13.2,127c23.1,39.5,61.3,66.6,105.5,75v0.1l4.9,0.8l5,0.8v-0.1c6.4,0.8,12.8,1.2,19.2,1.2
				c22.5,0,44.8-4.9,65.5-14.6c26.5-12.3,48.8-31.6,64.7-56l0.1,0.1l1-1.6l1.6-2.6c0.2-0.4,0.5-0.9,0.7-1.2l0.1-0.2l0.1-0.1
				L648.4,1087.2L648.4,1087.2z M633.3,951.3c3-1.5,6.4-3.3,10.4-5.4c21.2,42.9,19.8,94.3-3.8,136l-1-0.6c-5.3-3.1-7.5-4.5-18-10.8
				l-97.9-59.9l81.3-44C616.3,960.2,621.2,957.6,633.3,951.3z M378.2,955.3c21.3-51.9,68.9-86.2,125.3-90.2
				c55.8-3.9,107.1,23.4,135.2,71.5l-39.2,21.2c-8.1,4.3-19.4,10.5-38.3,20.7c-12.1,6.6-27.4,14.8-46.9,25.4l-1.2,0.7l-3.9-2.4
				l-0.2,1.4l-61.9-22.8L378.2,955.3z M387.2,1083.2c-21.2-36.2-25.6-79.1-12.4-118.5l93.1,34.3l39.6,14.6l-21.8,139.8
				C444.4,1145.4,408.7,1120,387.2,1083.2z M495.5,1154.9l21.3-136.5l55.5,33.9c22.4,13.7,35.2,21.5,43.2,26.4l19.1,11.7
				C604.1,1136.8,550.4,1161.7,495.5,1154.9z"/>
		</g>
	</g>
	<path class="st8" d="M422.6,1334.1c0,24.8-20.1,44.9-44.9,44.9s-44.9-20.1-44.9-44.9s20.1-44.9,44.9-44.9
		S422.6,1309.3,422.6,1334.1z"/>
	<path class="st15" d="M410.7,1336.1c0,12.4-10.1,22.5-22.5,22.5s-22.5-10.1-22.5-22.5s10.1-22.5,22.5-22.5
		S410.7,1323.7,410.7,1336.1z"/>
	<path class="st8" d="M3451.7,1333.5h-111.4c-16.3,0-29.6-13.3-29.6-29.6v-111.4c0-16.3,13.3-29.6,29.6-29.6h111.4
		c16.3,0,29.6,13.3,29.6,29.6v111.4C3481.3,1320.2,3468,1333.5,3451.7,1333.5z"/>
	<g class="st1">
		<path class="st3" d="M3503.6,1364.6h-111.4c-19.1,0-34.6-15.5-34.6-34.6v-111.4c0-19.1,15.5-34.6,34.6-34.6h111.4
			c19.1,0,34.6,15.5,34.6,34.6V1330C3538.2,1349.1,3522.6,1364.6,3503.6,1364.6z M3392.2,1194c-13.6,0-24.6,11-24.6,24.6V1330
			c0,13.6,11,24.6,24.6,24.6h111.4c13.6,0,24.6-11,24.6-24.6v-111.4c0-13.6-11-24.6-24.6-24.6H3392.2z"/>
	</g>
	<path class="st8" d="M1489.9,1339.8l-28.4-32.8c-4.3-5-3.8-12.6,1.2-16.9l32.8-28.4c5-4.3,12.6-3.8,16.9,1.2l28.4,32.8
		c4.3,5,3.8,12.6-1.2,16.9l-32.8,28.4C1501.8,1345.3,1494.2,1344.8,1489.9,1339.8z"/>
	<path class="st8" d="M1660.6,1367.2c0,13.9-11.2,25.1-25.1,25.1s-25.1-11.2-25.1-25.1s11.2-25.1,25.1-25.1
		S1660.6,1353.4,1660.6,1367.2z"/>
	<path class="st8" d="M3809.1,1289.5c0,13.8-11.2,25-25,25s-25-11.2-25-25s11.2-25,25-25S3809.1,1275.6,3809.1,1289.5z"/>
	<path class="st8" d="M3162,779.4c0,13.8-11.2,25-25,25s-25-11.2-25-25s11.2-25,25-25S3162,765.6,3162,779.4z"/>
	<ellipse class="st8" cx="3619.5" cy="1089.2" rx="19.5" ry="19.5"/>
	<g class="st1">
		<path class="st2" d="M2942.2,848.5h-414.6c-4.5,0-8.2-3.7-8.2-8.2V661.9c0-4.5,3.7-8.2,8.2-8.2h414.6c4.5,0,8.2,3.7,8.2,8.2v178.4
			C2950.3,844.8,2946.7,848.5,2942.2,848.5z"/>
		<path class="st3" d="M2931.9,839.3h-394.1c-3.6,0-6.6-3-6.6-6.6V711.5c0-3.6,3-6.6,6.6-6.6h394.1c3.6,0,6.6,3,6.6,6.6v121.2
			C2938.5,836.4,2935.6,839.3,2931.9,839.3z"/>
		<g>
			<path class="st3" d="M2550.4,683.2h-9.6c-2,0-3.7-1.6-3.7-3.7v-7.9c0-2,1.6-3.7,3.7-3.7h9.6c2,0,3.7,1.6,3.7,3.7v7.9
				C2554.1,681.6,2552.4,683.2,2550.4,683.2z"/>
			<path class="st3" d="M2581.1,683.2h-9.6c-2,0-3.7-1.6-3.7-3.7v-7.9c0-2,1.6-3.7,3.7-3.7h9.6c2,0,3.7,1.6,3.7,3.7v7.9
				C2584.8,681.6,2583.1,683.2,2581.1,683.2z"/>
			<path class="st3" d="M2611.8,683.2h-9.6c-2,0-3.7-1.6-3.7-3.7v-7.9c0-2,1.6-3.7,3.7-3.7h9.6c2,0,3.7,1.6,3.7,3.7v7.9
				C2615.5,681.6,2613.8,683.2,2611.8,683.2z"/>
		</g>
		<path class="st2" d="M2922,734.3h-215.5c-3.5,0-6.4-2.9-6.4-6.4s2.9-6.4,6.4-6.4H2922c3.5,0,6.4,2.9,6.4,6.4
			C2928.4,731.4,2925.5,734.3,2922,734.3z"/>
		<path class="st2" d="M2759.9,833.8h-215.5c-3.5,0-6.4-2.9-6.4-6.4s2.9-6.4,6.4-6.4h215.5c3.5,0,6.4,2.9,6.4,6.4
			C2766.4,830.9,2763.5,833.8,2759.9,833.8z"/>
		<path class="st2" d="M2799.6,833.8h-22.3c-1.2,0-2.2-1-2.2-2.2v-8.5c0-1.2,1-2.2,2.2-2.2h22.3c1.2,0,2.2,1,2.2,2.2v8.5
			C2801.8,832.8,2800.8,833.8,2799.6,833.8z"/>
		<path class="st2" d="M2833.2,833.8h-22.3c-1.2,0-2.2-1-2.2-2.2v-8.5c0-1.2,1-2.2,2.2-2.2h22.3c1.2,0,2.2,1,2.2,2.2v8.5
			C2835.4,832.8,2834.4,833.8,2833.2,833.8z"/>
		<path class="st2" d="M2924,762.4h-356.8c-2.4,0-4.4-2-4.4-4.4s2-4.4,4.4-4.4H2924c2.4,0,4.4,2,4.4,4.4
			C2928.4,760.5,2926.4,762.4,2924,762.4z"/>
		<path class="st2" d="M2924,781.3h-356.8c-2.4,0-4.4-2-4.4-4.4s2-4.4,4.4-4.4H2924c2.4,0,4.4,2,4.4,4.4S2926.4,781.3,2924,781.3z"
			/>
	</g>
	<ellipse class="st8" cx="388.2" cy="648.8" rx="49.5" ry="49.5"/>
	<path class="st8" d="M1078.7,794.5H723c-3.6,0-6.6-3-6.6-6.6s3-6.6,6.6-6.6h355.6c3.6,0,6.6,3,6.6,6.6
		C1085.3,791.5,1082.3,794.5,1078.7,794.5z"/>
	<path class="st8" d="M1078.7,827.5H723c-3.6,0-6.6-3-6.6-6.6s3-6.6,6.6-6.6h355.6c3.6,0,6.6,3,6.6,6.6
		C1085.3,824.5,1082.3,827.5,1078.7,827.5z"/>
	<g class="st1">
		<path class="st4" d="M2414.2,1298.9c1-9.1,1.6-18.4,1.6-27.8c0-5-0.2-9.9-0.5-14.8l-45.9-14.9c-2.8-19.4-8.4-37.8-16.3-55
			l30.4-37.5c-7-12.4-15.1-24.1-24.1-35.1l-45.9,15c-13.4-13.7-28.7-25.5-45.5-34.9l2.6-48.2c-12.8-5.8-26.2-10.6-40.1-14.2
			l-28.3,39.1c-11-1.9-22.4-2.8-34-2.8c-7.9,0-15.7,0.5-23.3,1.3l-26.2-40.6c-14.1,2.9-27.7,6.9-40.8,12.1l0.1,48.3
			c-17.3,8.6-33.2,19.6-47.2,32.5l-45-17.4c-9.6,10.5-18.3,21.7-25.9,33.7l28.4,39c-8.8,16.8-15.3,34.9-19.2,54.1l-46.6,12.4
			c-1,9.1-1.6,18.4-1.6,27.8c0,5,0.2,9.9,0.5,14.8l45.9,14.9c2.8,19.4,8.4,37.8,16.3,55l-30.4,37.5c7,12.4,15.1,24.1,24.1,35.1
			l45.9-15c13.4,13.7,28.7,25.5,45.4,34.9l-2.6,48.2c12.8,5.8,26.2,10.6,40.1,14.2l28.3-39.1c11,1.9,22.4,2.8,34,2.8
			c7.9,0,15.7-0.5,23.3-1.3l26.2,40.6c14.1-2.9,27.7-6.9,40.8-12.1l-0.1-48.3c17.3-8.6,33.2-19.6,47.2-32.5l45,17.4
			c9.6-10.5,18.3-21.7,25.9-33.7l-28.4-39c8.8-16.8,15.3-34.9,19.2-54.1L2414.2,1298.9z M2168.3,1368.2c-53.6,0-97-43.5-97-97
			c0-53.6,43.5-97.1,97-97.1s97,43.5,97,97.1C2265.4,1324.7,2221.9,1368.2,2168.3,1368.2z"/>
		<g>
			<path class="st3" d="M2300.7,1383.2c-1.1,0-2.3-0.4-3.2-1.2c-2.1-1.8-2.4-4.9-0.6-7c24.2-29.1,37.5-66,37.5-103.9
				c0-18.1-3-36-8.8-53c-0.9-2.6,0.5-5.5,3.1-6.4s5.5,0.5,6.4,3.1c6.2,18,9.4,37,9.4,56.2c0,40.2-14.1,79.4-39.8,110.3
				C2303.6,1382.6,2302.1,1383.2,2300.7,1383.2z"/>
		</g>
		<g>
			<path class="st3" d="M2286.6,1154.1c-1.2,0-2.5-0.5-3.4-1.4c-16.3-15.3-35.1-26.9-56-34.5c-2.6-0.9-3.9-3.8-3-6.4s3.8-3.9,6.4-3
				c22.2,8,42.1,20.4,59.4,36.6c2,1.9,2.1,5.1,0.2,7.1C2289.3,1153.6,2288,1154.1,2286.6,1154.1z"/>
		</g>
		<g>
			<path class="st3" d="M2130.7,1113.7c-2.2,0-4.3-1.5-4.8-3.8c-0.7-2.7,0.9-5.4,3.6-6.1c13.8-3.5,28-5.2,42.4-5.2c2.8,0,5,2.2,5,5
				s-2.2,5-5,5c-13.5,0-26.9,1.7-39.9,4.9C2131.5,1113.6,2131.1,1113.7,2130.7,1113.7z"/>
		</g>
	</g>
</g>
</svg>
