<?xml version="1.0" encoding="utf-8"?>
<!-- Generator: Adobe Illustrator 22.0.0, SVG Export Plug-In . SVG Version: 6.00 Build 0)  -->
<svg version="1.1" id="Layer_1" xmlns="http://www.w3.org/2000/svg" xmlns:xlink="http://www.w3.org/1999/xlink" x="0px" y="0px"
	 viewBox="0 0 28.3 28.3" style="enable-background:new 0 0 28.3 28.3;" xml:space="preserve">
<style type="text/css">
	.st0{fill:url(#SVGID_1_);}
	.st1{fill:#FFFFFF;}
</style>
<g>
	<linearGradient id="SVGID_1_" gradientUnits="userSpaceOnUse" x1="14.2363" y1="1.9167" x2="14.2363" y2="26.4949">
		<stop  offset="0" style="stop-color:#20B038"/>
		<stop  offset="1" style="stop-color:#60D66A"/>
	</linearGradient>
	<path class="st0" d="M14.2,26.5c6.8,0,12.3-5.5,12.3-12.3c0-3.3-1.3-6.4-3.6-8.7c-2.3-2.3-5.4-3.6-8.7-3.6C7.5,1.9,2,7.4,1.9,14.2
		c0,2.3,0.6,4.6,1.9,6.5l0.3,0.5l-1.2,4.5l4.7-1.2L8,24.8C9.9,25.9,12,26.5,14.2,26.5L14.2,26.5z"/>
	<path class="st1" d="M10.5,8C10.3,7.4,10,7.4,9.7,7.4c-0.2,0-0.5,0-0.7,0c-0.2,0-0.6,0.1-1,0.5c-0.3,0.4-1.3,1.3-1.3,3.1
		c0,1.8,1.3,3.6,1.5,3.8c0.2,0.2,2.6,4.1,6.3,5.6c3.1,1.2,3.8,1,4.4,0.9s2.2-0.9,2.5-1.8c0.3-0.9,0.3-1.6,0.2-1.8
		c-0.1-0.2-0.3-0.2-0.7-0.4s-2.2-1.1-2.5-1.2s-0.6-0.2-0.8,0.2c-0.2,0.4-1,1.2-1.2,1.4C16.2,18,16,18,15.7,17.8
		c-0.4-0.2-1.6-0.6-3-1.8c-1.1-1-1.8-2.2-2.1-2.6c-0.2-0.4,0-0.6,0.2-0.8c0.2-0.2,0.4-0.4,0.6-0.6c0.2-0.2,0.2-0.4,0.4-0.6
		c0.1-0.2,0.1-0.5,0-0.6C11.6,10.6,10.9,8.8,10.5,8L10.5,8z"/>
</g>
</svg>
